<svg viewBox="0 0 285 340" version="1.1" xmlns="http://www.w3.org/2000/svg" xmlns:xlink="http://www.w3.org/1999/xlink">
    <defs>
        <polygon id="path-1" points="0 0.328808736 284.158608 0.328808736 284.158608 258 0 258"></polygon>
    </defs>
    <g id="Page-1" stroke="none" stroke-width="1" fill="none" fill-rule="evenodd" opacity="0.1">
        <g id="2_Mans_bruno_Jautajumi_desktop" transform="translate(-168.000000, -2793.000000)">
            <g id="Money" transform="translate(0.000000, 2662.000000)">
                <path d="M344.7393,206.635 C339.4233,204.625 336.3203,199.833 337.7973,195.927 L339.8023,190.626 C341.2793,186.72 346.7783,185.176 352.0943,187.186 L389.8383,201.46 C395.1443,203.466 398.2453,208.263 396.7683,212.169 L394.7633,217.47 C393.2863,221.376 387.7893,222.915 382.4833,220.909 L344.7393,206.635 Z" id="Fill-1" fill="#FFFFFF"></path>
                <path d="M354.1447,178.0979 C348.1237,175.8209 345.4357,171.4959 344.9747,167.6469 L343.2997,138.0639 C344.9327,131.4209 351.1807,129.6699 357.2017,131.9469 C357.2017,131.9469 380.5337,144.6989 388.9417,147.8779 C397.3497,151.0579 422.5407,156.6559 422.5407,156.6559 C428.5617,158.9329 431.9157,165.3139 429.0697,169.9469 L409.5817,189.8809 C404.6167,194.5299 400.5327,195.6409 394.5117,193.3639 L354.1447,178.0979 Z" id="Fill-3" fill="#FFFFFF"></path>
                <g id="Group-7" transform="translate(168.000000, 212.907000)">
                    <mask id="mask-2" fill="white">
                        <use xlink:href="#path-1"></use>
                    </mask>
                    <g id="Clip-6"></g>
                    <path d="M137.3304,161.847 L133.6454,171.591 L123.2994,167.679 L126.9844,157.935 C119.1914,154.159 111.7704,148.325 106.3034,141.721 L117.5264,130.972 C123.7904,138.019 129.5294,143.216 137.9524,146.401 C147.5684,150.038 154.1384,147.985 156.9604,140.524 C159.0074,135.11 156.7784,130.423 150.0984,125.552 L141.7774,119.519 C134.3434,114.092 130.3874,108.887 129.3164,102.705 C128.4394,98.106 128.8684,93.32 130.6434,88.625 C135.8744,74.793 149.6474,68.587 165.4754,72.505 L168.7514,63.841 L179.1124,67.759 L175.7894,76.546 C183.8944,80.57 190.7364,86.46 195.1194,93.067 L182.6204,102.092 C176.7714,94.65 171.7944,90.716 165.5464,88.353 C158.6824,85.757 152.3704,87.902 150.2294,93.563 C148.5934,97.888 150.0684,100.92 156.3064,105.483 L165.3644,112.07 C177.6764,120.993 181.8164,132.597 177.1314,144.985 C171.3054,160.39 155.8344,166.782 137.3304,161.847 M192.3154,9.55 C118.9384,-18.199 36.9614,18.792 9.2124,92.169 C-1.1166,119.483 -2.4626,147.991 3.6874,174.446 L224.6274,258 C246.7534,242.238 264.6084,219.974 274.9374,192.66 C302.6874,119.282 265.6924,37.299 192.3154,9.55" id="Fill-5" fill="#FFFFFF" mask="url(#mask-2)"></path>
                </g>
                <rect id="Rectangle-2" x="0" y="0" width="562" height="633"></rect>
            </g>
        </g>
    </g>
</svg>