<?xml version="1.0" encoding="UTF-8"?>
<svg width="347px" height="387px" viewBox="0 0 347 387" version="1.1" xmlns="http://www.w3.org/2000/svg" xmlns:xlink="http://www.w3.org/1999/xlink">
    <!-- Generator: Sketch 50 (54983) - http://www.bohemiancoding.com/sketch -->
    <title>Person</title>
    <desc>Created with Sketch.</desc>
    <defs>
        <polygon id="path-1" points="168 90 514.493 90 514.493 476.274 168 476.274"></polygon>
    </defs>
    <g id="Page-1" stroke="none" stroke-width="1" fill="none" fill-rule="evenodd" opacity="0.1">
        <g id="2_Mans_bruno_Jautajumi_desktop" transform="translate(-168.000000, -2116.000000)">
            <g id="Person" transform="translate(0.000000, 2026.000000)">
                <rect id="Rectangle-7" x="0" y="0" width="562" height="633"></rect>
                <mask id="mask-2" fill="white">
                    <use xlink:href="#path-1"></use>
                </mask>
                <g id="Clip-2"></g>
                <path d="M346.0112,364.1683 L320.7612,369.6293 L306.6382,344.6453 L348.5472,335.5803 L346.0112,364.1683 Z M473.7642,315.5353 C467.8142,313.9283 360.5342,288.5293 360.5342,288.5293 L354.3652,260.0073 C362.7412,249.3543 367.2732,236.4373 364.5502,223.8473 L363.3832,213.6353 C370.7682,211.6213 375.9152,201.3793 375.1072,189.3083 L375.0492,188.3443 C374.1712,175.2183 366.6512,165.0233 358.2322,165.5803 C358.0832,165.5903 357.9602,165.6533 357.8282,165.6743 L354.8592,140.0583 C349.2412,114.0823 320.7702,81.7723 273.9072,91.9083 C227.0452,102.0433 214.4722,143.2313 220.0902,169.2083 L227.9722,193.7613 C227.8432,193.7963 227.7062,193.7903 227.5662,193.8423 C219.6692,196.8143 217.0342,209.2053 221.6592,221.5213 L222.0052,222.4233 C226.2632,233.7413 235.1832,240.9473 242.7342,239.7303 L245.8782,249.5153 C248.6012,262.1053 258.0792,271.9923 270.1162,278.2303 L276.2852,306.7523 C276.2852,306.7523 189.2022,373.1053 184.3152,378.1413 C179.4372,383.1823 165.8482,391.7163 168.2912,403.0103 L184.1372,476.2743 L331.1542,444.4753 L323.6162,382.8303 L348.8662,377.3693 L367.4842,436.6173 L514.4932,404.8213 L498.6472,331.5563 C496.2042,320.2633 479.7002,317.1463 473.7642,315.5353 Z" id="Fill-1" fill="#FFFFFF" mask="url(#mask-2)"></path>
            </g>
        </g>
    </g>
</svg>