<svg viewBox="0 0 426 345" version="1.1" xmlns="http://www.w3.org/2000/svg" xmlns:xlink="http://www.w3.org/1999/xlink">
    <defs>
        <polygon id="path-1" points="0.615849745 0.0457620523 396.089 0.0457620523 396.089 93.9998783 0.615849745 93.9998783"></polygon>
    </defs>
    <g id="Page-1" stroke="none" stroke-width="1" fill="none" fill-rule="evenodd" opacity="0.1">
        <g id="2_Mans_bruno_Jautajumi_desktop" transform="translate(-89.000000, -3485.000000)">
            <g id="Bank" transform="translate(0.000000, 3294.000000)">
                <path d="M223.5291,448.9577 C224.7211,457.1617 219.0391,464.7887 210.8211,465.9837 L192.9581,468.5797 C184.7531,469.7717 177.1281,464.0787 175.9361,455.8747 L157.3911,328.2707 C156.1991,320.0657 161.8881,312.4407 170.0931,311.2487 L187.9561,308.6527 C196.1741,307.4587 203.7921,313.1497 204.9841,321.3537 L223.5291,448.9577 Z" id="Fill-1" fill="#FFFFFF"></path>
                <path d="M332.5426,433.1146 C333.7346,441.3186 328.0526,448.9456 319.8346,450.1406 L301.9716,452.7366 C293.7606,453.9296 286.1416,448.2356 284.9496,440.0316 L266.4046,312.4276 C265.2126,304.2226 270.8956,296.5986 279.1066,295.4056 L296.9696,292.8096 C305.1876,291.6156 312.8056,297.3066 313.9976,305.5106 L332.5426,433.1146 Z" id="Fill-3" fill="#FFFFFF"></path>
                <path d="M441.5583,417.2712 C442.7503,425.4752 437.0683,433.1022 428.8503,434.2972 L410.9873,436.8932 C402.7763,438.0862 395.1573,432.3922 393.9653,424.1882 L375.4203,296.5842 C374.2283,288.3792 379.9113,280.7552 388.1223,279.5622 L405.9853,276.9662 C414.2033,275.7722 421.8213,281.4632 423.0133,289.6672 L441.5583,417.2712 Z" id="Fill-5" fill="#FFFFFF"></path>
                <g id="Group-9" transform="translate(118.000000, 441.859000)">
                    <mask id="mask-2" fill="white">
                        <use xlink:href="#path-1"></use>
                    </mask>
                    <g id="Clip-8"></g>
                    <path d="M19.3999,93.8419 C11.1959,95.0339 3.5719,89.3519 2.3779,81.1369 L0.7739,70.1009 C-0.4191,61.8929 5.2709,54.2719 13.4759,53.0789 L377.3059,0.2039 C385.5099,-0.9891 393.1339,4.6969 394.3269,12.9049 L395.9309,23.9409 C397.1249,32.1559 391.4339,39.7739 383.2299,40.9659 L19.3999,93.8419 Z" id="Fill-7" fill="#FFFFFF" mask="url(#mask-2)"></path>
                </g>
                <polygon id="Fill-10" fill="#FFFFFF" points="482.5523 249.8901 89.0003 307.0891 273.0603 191.0001"></polygon>
                <rect id="Rectangle-10" x="0" y="0" width="562" height="633"></rect>
            </g>
        </g>
    </g>
</svg>