<svg viewBox="0 0 329 345" version="1.1" xmlns="http://www.w3.org/2000/svg" xmlns:xlink="http://www.w3.org/1999/xlink">
    <defs>
        <polygon id="path-1" points="177.0002 125 505.549528 125 505.549528 470.017 177.0002 470.017"></polygon>
    </defs>
    <g id="Page-1" stroke="none" stroke-width="1" fill="none" fill-rule="evenodd" opacity="0.1">
        <g id="2_Mans_bruno_Jautajumi_desktop" transform="translate(-177.000000, -1515.000000)">
            <g id="Head" transform="translate(0.000000, 1390.000000)">
                <rect id="Rectangle-8" x="0" y="0" width="562" height="633"></rect>
                <mask id="mask-2" fill="white">
                    <use xlink:href="#path-1"></use>
                </mask>
                <g id="Clip-2"></g>
                <path d="M341.3502,470.017 L343.7972,466.118 C349.0402,456.516 359.2472,433.921 367.3652,428.098 C378.6402,419.98 391.3632,424.692 408.3682,428.496 C427.2832,432.759 452.5192,443.844 458.1312,424.292 C458.6992,422.276 459.0982,420.439 459.3132,419.448 L475.0802,346.424 C481.1272,347.739 487.1542,349.049 493.2012,350.364 C496.8542,351.158 500.3862,350.024 502.8892,347.261 C505.3962,344.477 506.1812,340.865 505.0312,337.308 L483.7382,271.596 L484.9592,240.326 C485.1502,237.363 485.2732,234.408 485.3102,231.454 L485.3032,231.388 C485.5432,198.067 465.9662,171.397 437.9132,153.086 C364.7982,105.332 246.0132,113.639 227.6292,215.706 C220.1622,257.117 234.9572,299.521 236.0732,333.763 C236.5252,348.386 230.2352,363.9 220.3322,378.93 L177.0002,434.289 L341.3502,470.017 Z" id="Fill-1" fill="#FFFFFF" mask="url(#mask-2)"></path>
            </g>
        </g>
    </g>
</svg>