<svg viewBox="0 0 26 26" version="1.1" xmlns="http://www.w3.org/2000/svg" xmlns:xlink="http://www.w3.org/1999/xlink">
    <defs>
        <polygon id="path-1" points="0.0003 0.984 4.5783 0.984 4.5783 19.9996 0.0003 19.9996"></polygon>
    </defs>
    <g id="Symbols" stroke="none" stroke-width="1" fill="none" fill-rule="evenodd">
        <rect id="Rectangle-4-Copy" fill="#FFFFFF" x="0" y="0" width="26" height="26" rx="4"></rect>
        <g id="Page-1" transform="translate(3.000000, 3.000000)">
            <g id="Group-3" transform="translate(0.000000, 0.016400)">
                <mask id="mask-2" fill="white">
                    <use xlink:href="#path-1"></use>
                </mask>
                <g id="Clip-2"></g>
                <path d="M2.2903,0.9836 C3.5533,0.9836 4.5783,2.0096 4.5783,3.2726 C4.5783,4.5366 3.5533,5.5626 2.2903,5.5626 C1.0223,5.5626 0.0003,4.5366 0.0003,3.2726 C0.0003,2.0096 1.0223,0.9836 2.2903,0.9836 Z M0.3133,19.9996 L4.2653,19.9996 L4.2653,7.2976 L0.3133,7.2976 L0.3133,19.9996 Z" id="Fill-1" fill="#558CAA" mask="url(#mask-2)"></path>
            </g>
            <path d="M6.7417,7.3142 L10.5257,7.3142 L10.5257,9.0502 L10.5797,9.0502 C11.1067,8.0522 12.3947,6.9992 14.3157,6.9992 C18.3127,6.9992 19.0507,9.6292 19.0507,13.0502 L19.0507,20.0162 L15.1037,20.0162 L15.1037,13.8392 C15.1037,12.3662 15.0787,10.4712 13.0527,10.4712 C10.9977,10.4712 10.6847,12.0772 10.6847,13.7342 L10.6847,20.0162 L6.7417,20.0162 L6.7417,7.3142 Z" id="Fill-4" fill="#558CAA"></path>
        </g>
    </g>
</svg>