<svg viewBox="0 0 181 175" version="1.1" xmlns="http://www.w3.org/2000/svg" xmlns:xlink="http://www.w3.org/1999/xlink">
    <defs>
        <polygon id="path-1" points="0.013427027 0.75 174.075049 0.75 174.075049 174.999762 0.013427027 174.999762"></polygon>
        <polygon id="path-3" points="0 0.160150982 17.3598573 0.160150982 17.3598573 8.520125 0 8.520125"></polygon>
    </defs>
    <g id="Page-1" stroke="none" stroke-width="1" fill="none" fill-rule="evenodd">
        <g id="3_MansBruno_Results_desktop" transform="translate(-510.000000, -2468.000000)">
            <g id="Noderigi_ikona" transform="translate(510.000000, 2468.000000)">
                <g id="Group-3" transform="translate(6.000000, 0.000000)">
                    <mask id="mask-2" fill="white">
                        <use xlink:href="#path-1"></use>
                    </mask>
                    <g id="Clip-2"></g>
                    <path d="M0.013427027,87.8747619 C0.013427027,39.7569048 38.9784,0.749761905 87.0442378,0.749761905 C135.110076,0.749761905 174.075049,39.7569048 174.075049,87.8747619 C174.075049,135.992619 135.110076,174.999762 87.0442378,174.999762 C38.9784,174.999762 0.013427027,135.992619 0.013427027,87.8747619" id="Fill-1" fill="#558CAA" mask="url(#mask-2)"></path>
                </g>
                <path d="M109.268913,83.5226216 C109.268913,83.5226216 120.52689,77.0353587 118.824756,85.8701432 C117.122621,94.703736 113.760159,101.349486 113.393454,103.612402 C113.026748,105.875317 106.854868,115.773041 104.237762,105.973032 C104.237762,105.973032 107.117654,141.177515 69.7937261,149.972975 C69.7937261,149.972975 33.3632696,152.438469 24.1382978,110.27126 C24.1382978,110.27126 22.8410921,117.87151 17.2067283,111.828728 C11.5735589,105.785945 -0.838286487,83.2080298 14.090329,89.5654044 C14.090329,89.5654044 10.9966249,67.1864926 14.45584,57.8941201 C17.9150551,48.6029393 26.5451757,36.5447812 26.5451757,36.5447812 L57.4105482,26 L78.5421002,27.5872583 L89.7690211,34.5583251 C89.7690211,34.5583251 96.7065631,34.37243 101.903747,46.8476604 C107.102126,59.3228909 109.268913,83.5226216 109.268913,83.5226216" id="Fill-4" fill="#FDEDE0"></path>
                <path d="M19.6764984,56.8717594 C19.6764984,56.8717594 47.492127,22.0069761 79.6896289,38.3284072 C111.887131,54.6486495 105.998802,89.6430151 105.998802,89.6430151 C105.998802,89.6430151 111.023908,81.1333783 113.527494,81.7147156 C116.032275,82.2960529 122.487318,4.38377748 59.4600808,8.13096597 C10.7800405,11.0257642 11.2738232,49.3643053 11.2738232,49.3643053 C11.2738232,49.3643053 -4.26777826,62.2749864 10.0842014,84.1862907 C24.4361811,106.097595 20.1057187,98.8516832 20.1057187,98.8516832 C20.1057187,98.8516832 25.4739617,67.1682059 19.6764984,56.8717594" id="Fill-6" fill="#231F20"></path>
                <path d="M109.268913,83.303508 C109.268913,83.303508 120.52689,76.7948627 118.824756,85.6587672 C117.122621,94.5214761 113.760159,101.189131 113.393454,103.459506 C113.026748,105.72988 106.854868,115.660226 104.237762,105.827916 C104.237762,105.827916 104.143398,143.874319 69.7937261,149.972886 C69.7937261,149.972886 33.3632696,152.446506 24.1382978,110.140312 C24.1382978,110.140312 22.8410921,117.765613 17.2067283,111.702913 C11.5735589,105.640213 -0.838286487,82.9878794 14.090329,89.3662082" id="Stroke-8" stroke="#231F20" stroke-width="3.018" stroke-linecap="round" stroke-linejoin="round"></path>
                <path d="M64.0629212,132 C54.2528327,132 46.3232192,127.545067 45.9059962,127.305067 C45.0453996,126.813126 44.7458549,125.715811 45.234398,124.851332 C45.7241298,123.984464 46.8188943,123.684762 47.6794909,124.173121 C47.7947919,124.239987 59.5126947,130.792834 71.2317863,127.417306 C77.9786737,125.472228 83.4964771,120.602966 87.6294805,112.943252 C88.1001936,112.066833 89.1913921,111.744444 90.0603094,112.218475 C90.9316041,112.692506 91.2549222,113.786239 90.7830204,114.661464 C86.1674172,123.214314 79.9114502,128.674621 72.1898538,130.88955 C69.4190655,131.683582 66.6732392,132 64.0629212,132" id="Fill-10" fill="#231F20"></path>
                <path d="M66.2257258,120 C60.6356975,120 55.2703053,117.186839 54.9715745,117.028768 C54.0977283,116.563201 53.7496012,115.444358 54.1918168,114.525573 C54.6340323,113.608023 55.7019359,113.240016 56.574606,113.704348 C56.6581095,113.74757 64.8779092,118.037703 70.2515342,115.462882 C72.3814608,114.440364 73.7727933,112.460777 74.5043308,109.409275 C74.7430802,108.411455 75.7098387,107.805107 76.6577796,108.057031 C77.6092487,108.308956 78.1855403,109.321596 77.9456148,110.319416 C76.9471015,114.484821 74.8512819,117.357259 71.7157852,118.857694 C69.98103,119.686329 68.0910288,120 66.2257258,120" id="Fill-12" fill="#231F20"></path>
                <path d="M35.8218651,98 C35.6275507,98 35.4296155,97.9689214 35.2353011,97.9031783 C34.2842468,97.5828301 33.7737188,96.558433 34.0971739,95.6153182 C34.1816584,95.3726664 36.2008386,89.6506255 41.6247451,87.6651837 C45.2817181,86.322829 49.4854267,87.0137292 54.1055233,89.7235406 C54.9708862,90.2303601 55.2581336,91.337235 54.7463988,92.194286 C54.2322501,93.0513371 53.1158474,93.3358254 52.2504845,92.8266152 C48.6200638,90.6989292 45.468791,90.1024599 42.8871853,91.0479653 C39.1324516,92.4225939 37.5598325,96.732951 37.5465564,96.7771782 C37.2882751,97.5266496 36.579812,98 35.8218651,98" id="Fill-14" fill="#231F20"></path>
                <path d="M75.8244512,90 C75.5362432,90 75.2431914,89.9287243 74.9695149,89.7799207 C74.0830936,89.2909946 73.7416034,88.1580866 74.2102442,87.2390055 C74.3155975,87.0314307 76.8634532,82.1371679 82.0524083,81.1668184 C85.9311069,80.4415571 90.0786381,82.0833985 94.3884377,86.0485767 C95.1416536,86.7425767 95.2082563,87.9342559 94.5373855,88.7120361 C93.8653038,89.4910667 92.7124718,89.5610919 91.956834,88.8658415 C88.5431433,85.7259605 85.4406689,84.3829768 82.7341777,84.8744038 C79.3059555,85.4983785 77.4580336,88.9696289 77.4398692,89.0046415 C77.1092777,89.6386198 76.4771576,90 75.8244512,90" id="Fill-16" fill="#231F20"></path>
                <path d="M28.8713673,83 C27.6941568,83 26.5312445,82.4590708 25.771062,81.4361136 C24.4913818,79.7099484 24.8404938,77.2649484 26.5515001,75.9739306 C26.9554215,75.6674041 36.6674078,68.5127138 52.918393,71.9157595 C55.0094905,72.3545132 56.3523206,74.4184587 55.9186115,76.5292846 C55.4860939,78.6377065 53.4474228,79.9948377 51.3467932,79.5572861 C38.6774827,76.9031268 31.2555759,82.1681711 31.1840854,82.222264 C30.4894359,82.7463643 29.6768271,83 28.8713673,83" id="Fill-18" fill="#231F20"></path>
                <path d="M69.8931754,74 C68.8619607,74 67.8331441,73.6033991 67.0681267,72.816047 C65.5884535,71.2939888 65.6544032,68.8909853 67.2144153,67.4473114 C72.5491529,62.511444 85.9261662,55.4428233 98.3559009,64.0253128 C100.110165,65.2361738 100.526248,67.6064197 99.2851932,69.318004 C98.0429392,71.0284183 95.6123901,71.4343785 93.859325,70.2235174 C83.4740335,63.0566239 73.0108013,72.5516464 72.5695373,72.9576066 C71.8165108,73.6548754 70.8548431,74 69.8931754,74" id="Fill-20" fill="#231F20"></path>
                <path d="M11.5252196,51 C11.5252196,51 6.16285401,49.1370683 0.00519755056,49.9003768 C-0.215846528,49.9279247 6.6599108,44.8935327 11.7871978,46.2238702 C16.9144848,47.5553556 11.5252196,51 11.5252196,51" id="Fill-22" fill="#231F20"></path>
                <g id="Group-26" transform="translate(0.000000, 41.000000)">
                    <mask id="mask-4" fill="white">
                        <use xlink:href="#path-3"></use>
                    </mask>
                    <g id="Clip-25"></g>
                    <path d="M12.7584,8.520125 C12.7584,8.520125 7.5384,3.321375 0.0048,0.917625 C-0.2652,0.831375 10.3668,-1.623625 15.5964,2.793875 C20.826,7.211375 12.7584,8.520125 12.7584,8.520125" id="Fill-24" fill="#231F20" mask="url(#mask-4)"></path>
                </g>
                <path d="M122,74.9780679 C122,74.9780679 114.010154,76.3946963 107.693785,56.4574027 C101.376232,36.5212966 108.151801,44.6327708 108.151801,44.6327708 C108.151801,44.6327708 111.896413,67.5078169 122,74.9780679" id="Fill-27" fill="#231F20"></path>
                <path d="M124,64.1630147 C124,64.1630147 117.583834,69.1256555 102.429974,54.8829579 C87.2761136,40.641425 97.1775597,44.467352 97.1775597,44.467352 C97.1775597,44.467352 111.45323,62.4486267 124,64.1630147" id="Fill-29" fill="#231F20"></path>
                <path d="M43.0017318,95.592087 C42.9508241,94.2118653 44.0285509,93.0526525 45.4073913,93.0017338 C46.7873149,92.9508151 47.9473605,94.0276913 47.9982682,95.407913 C48.0491759,96.7881347 46.9714491,97.9473475 45.5915255,97.9982662 C44.2126851,98.0491849 43.0526395,96.9723087 43.0017318,95.592087" id="Fill-31" fill="#231F20"></path>
                <path d="M81.0017318,91.592087 C80.9508241,90.2118653 82.0285509,89.0526525 83.4073913,89.0017338 C84.7873149,88.9508151 85.9473605,90.0276913 85.9982682,91.407913 C86.0491759,92.7881347 84.9714491,93.9473475 83.5915255,93.9982662 C82.2126851,94.0491849 81.0526395,92.9723087 81.0017318,91.592087" id="Fill-33" fill="#231F20"></path>
                <path d="M167.361898,97.9507729 L166.305654,111.802433 C166.179713,113.445207 164.73614,114.68173 163.087021,114.556183 L162.817316,114.536048 C161.168198,114.4105 159.927794,112.969075 160.053736,111.3263 L161.11592,97.4746406 C161.196713,96.4134104 162.128203,95.6174878 163.1892,95.6980276 L165.583273,95.8804265 C166.645458,95.9609663 167.44269,96.8895427 167.361898,97.9507729 Z M176.661359,102.257283 L176.024524,110.569463 C175.884325,112.200394 174.447881,113.421519 172.808267,113.297156 L172.539751,113.277021 C170.906077,113.152658 169.682308,111.740843 169.778546,110.118203 L170.421322,101.729037 C170.528253,100.697417 171.44311,99.927551 172.488661,100.006906 L174.880359,100.189305 C175.942543,100.269845 176.74334,101.198422 176.661359,102.257283 Z M153.797065,92.5865859 L156.188762,92.7689849 C157.254511,92.8507091 158.057684,93.7769167 157.975703,94.8369624 L156.934905,108.423315 C156.808964,110.066089 155.363014,111.301428 153.715084,111.17588 L153.444191,111.155745 C151.795072,111.030198 150.555857,109.589957 150.681798,107.947182 L151.722597,94.3608302 L151.721409,94.3608302 C151.802201,93.3007844 152.733692,92.5060461 153.797065,92.5865859 Z M158.235903,144.633057 L149.861992,143.994661 C137.062311,143.019892 129.429791,134.068131 130.417123,121.192425 L131.629012,105.373462 C135.118537,106.156356 137.605285,109.400452 137.324887,113.056721 L136.648843,121.872275 L138.309843,121.999007 C148.020396,122.739262 155.548362,128.245578 155.086181,134.273034 C155.016082,135.188582 155.70163,135.986874 156.620052,136.056754 C157.537285,136.126634 158.338082,135.442046 158.409369,134.526498 C158.982046,127.052879 150.947939,120.255557 140.221538,118.856771 L143.491261,76.2073982 C143.623142,74.4900056 145.130874,73.2001845 146.853657,73.3316539 C148.574063,73.4631232 149.865556,74.9661379 149.733674,76.6835305 L147.35861,107.693719 C147.09247,111.164036 149.707535,114.203229 153.189932,114.468536 L153.460825,114.489856 C154.774892,114.589346 156.025989,114.277847 157.089361,113.667876 C157.906792,115.943125 159.994329,117.653411 162.563057,117.848839 L162.832762,117.868974 C165.213766,118.051373 167.367839,116.871702 168.592796,115.008627 C169.590822,115.888642 170.856176,116.480847 172.285492,116.589812 L172.554008,116.609947 C173.642331,116.692856 174.672437,116.470187 175.603927,116.053275 L174.477584,130.744681 C173.841937,139.035541 166.55516,145.266716 158.235903,144.633057 Z M179.984547,102.510746 C180.205539,99.6243424 178.03008,97.0979986 175.133429,96.8765142 L172.74292,96.6952997 C172.005094,96.6384481 171.293407,96.7355696 170.632809,96.9617916 C170.254984,94.6237689 168.307646,92.754772 165.837532,92.566451 L163.443459,92.3840521 C162.564246,92.3177252 161.7183,92.4705139 160.960276,92.7974107 C160.246212,90.9734213 158.531746,89.6149045 156.443021,89.4561938 L154.051323,89.2737948 C153.370527,89.2216809 152.711117,89.3022206 152.09448,89.491726 L153.056862,76.9369939 C153.328943,73.3920587 150.660412,70.2900924 147.107916,70.0188628 C143.553043,69.7488176 140.440153,72.4101839 140.16926,75.9551191 L137.914198,105.36754 C136.14389,103.419188 133.653578,102.117523 130.82465,101.90196 L128.566023,101.729037 L127.093935,120.938961 C125.969968,135.600756 135.018735,146.196476 149.607733,147.307452 L157.981644,147.945848 C168.135368,148.719267 177.024926,141.116548 177.800772,130.998144 L179.984547,102.510746 Z" id="Fill-35" fill="#000000"></path>
                <path d="M157.736433,145.955247 L149.412885,145.31108 C136.690186,144.3275 129.103569,135.294819 130.084964,122.30272 L131.289564,106.339565 C134.758102,107.130731 137.229894,110.404152 136.951182,114.093473 L136.279205,122.988716 L137.930215,123.116594 C147.582365,123.863541 155.065056,129.419632 154.605654,135.501574 C154.535976,136.425398 155.217402,137.230906 156.1303,137.301417 C157.042016,137.371929 157.839178,136.681153 157.908856,135.757328 C158.478088,128.214956 150.4923,121.357384 139.830412,119.945953 L143.080469,76.9110448 C143.211558,75.1781276 144.710222,73.876647 146.422643,74.0093048 C148.132702,74.1419626 149.416428,75.658564 149.28652,77.3914812 L146.92456,108.681991 C146.66002,112.183679 149.259357,115.250344 152.72081,115.51805 L152.990073,115.539562 C154.296237,115.639952 155.53981,115.325637 156.596787,114.710152 C157.409301,117.005969 159.484283,118.731715 162.037562,118.928909 L162.305645,118.949226 C164.672329,119.133274 166.813446,117.942939 168.031036,116.063023 C169.02306,116.950994 170.280803,117.548551 171.701523,117.658502 L171.968424,117.678819 C173.050202,117.762477 174.074112,117.537795 175,117.117115 L173.880431,131.941325 C173.248606,140.307132 166.005655,146.594634 157.736433,145.955247" id="Fill-37" fill="#FDEDE0"></path>
                <path d="M153.992926,93.0057389 L156.283353,93.1920234 C157.303976,93.2742789 158.072003,94.2214266 157.994631,95.3040539 L156.996765,109.178619 C156.876156,110.857598 155.49257,112.119252 153.913279,111.99103 L153.654994,111.969257 C152.075703,111.841035 150.887821,110.371323 151.00843,108.692344 L152.006296,94.8165692 L152.00402,94.8165692 C152.08253,93.7351515 152.974579,92.9234834 153.992926,93.0057389" id="Fill-39" fill="#FDEDE0"></path>
                <path d="M176.9943,102.204352 L176.347748,110.32508 C176.205409,111.91983 174.747048,113.113 173.082416,112.991484 L172.809802,112.970653 C171.151202,112.849137 169.90876,111.4708 170.00526,109.884151 L170.65905,101.688199 C170.766407,100.680196 171.696429,99.9279555 172.757933,100.005494 L175.184918,100.183717 C176.26331,100.262413 177.076325,101.169731 176.9943,102.204352" id="Fill-41" fill="#FDEDE0"></path>
                <path d="M166.994611,98.2736089 L165.984901,112.218818 C165.864508,113.872687 164.484533,115.117561 162.908067,114.991166 L162.650244,114.970895 C161.073778,114.8445 159.888022,113.393339 160.008415,111.73947 L161.023804,97.794261 C161.101037,96.7258636 161.991491,95.9245656 163.005744,96.0056494 L165.294345,96.1892802 C166.309735,96.2703639 167.071845,97.2052116 166.994611,98.2736089" id="Fill-43" fill="#FDEDE0"></path>
            </g>
        </g>
    </g>
</svg>