<svg xmlns="http://www.w3.org/2000/svg" viewBox="0 0 36 36"><path fill="#ffffff" d="M30.59,9.7a10.3,10.3,0,0,1-1.79.6A5.59,5.59,0,0,0,30.27,8h0a.29.29,0,0,0-.43-.34h0A10.34,10.34,0,0,1,27.1,8.75l-.17,0a.73.73,0,0,1-.48-.18,5.61,5.61,0,0,0-3.71-1.4A6,6,0,0,0,21,7.46a5.43,5.43,0,0,0-3.66,3.91,6,6,0,0,0-.13,2.06.2.2,0,0,1-.05.16.21.21,0,0,1-.15.07h0a14.7,14.7,0,0,1-10.1-5.4h0a.29.29,0,0,0-.48,0h0a5.61,5.61,0,0,0,.91,6.81A5,5,0,0,1,6,14.62H6a.29.29,0,0,0-.44.25h0A5.61,5.61,0,0,0,8.84,20H8.72A5,5,0,0,1,7.77,20h0a.29.29,0,0,0-.33.38h0a5.62,5.62,0,0,0,4.44,3.82,10.34,10.34,0,0,1-5.79,1.76H5.43a.43.43,0,0,0-.42.32.44.44,0,0,0,.21.49A15.38,15.38,0,0,0,13,28.81a15.6,15.6,0,0,0,6.61-1.4,14.59,14.59,0,0,0,4.83-3.62,15.88,15.88,0,0,0,3-5,15.66,15.66,0,0,0,1-5.43v-.09a1,1,0,0,1,.36-.74,11.08,11.08,0,0,0,2.23-2.45h0a.29.29,0,0,0-.36-.43Z"/></svg>