<svg viewBox="0 0 340 310" version="1.1" xmlns="http://www.w3.org/2000/svg" xmlns:xlink="http://www.w3.org/1999/xlink">
    <defs>
        <polygon id="path-1" points="138.000253 203.0001 477.165 203.0001 477.165 512.884 138.000253 512.884"></polygon>
    </defs>
    <g id="Page-1" stroke="none" stroke-width="1" fill="none" fill-rule="evenodd" opacity="0.1">
        <g id="2_Mans_bruno_Jautajumi_desktop" transform="translate(-138.000000, -957.000000)">
            <g id="Diamond" transform="translate(0.000000, 754.000000)">
                <rect id="Rectangle-9" x="0" y="0" width="562" height="633"></rect>
                <mask id="mask-2" fill="white">
                    <use xlink:href="#path-1"></use>
                </mask>
                <g id="Clip-2"></g>
                <path d="M180.1413,298.8673 L224.0443,335.1853 L163.1153,354.1903 L180.1413,298.8673 Z M240.7963,323.0993 L195.5663,285.6823 L267.0333,263.3903 L240.7963,323.0993 Z M364.4833,284.5173 L308.9543,250.3143 L380.4223,228.0223 L364.4833,284.5173 Z M446.0663,265.9313 L385.1373,284.9363 L400.6063,230.0993 L446.0663,265.9313 Z M326.3833,467.5273 L171.9193,372.3853 L240.7873,350.9033 L326.3833,467.5273 Z M355.5753,473.5133 L260.9653,344.6093 L360.1213,313.6803 L355.5753,473.5133 Z M376.1873,451.9923 L380.3003,307.3863 L449.1683,285.9043 L376.1873,451.9923 Z M289.5503,261.8423 L346.5743,296.9653 L262.6063,323.1563 L289.5503,261.8423 Z M373.8903,506.9113 L476.1933,274.0953 C477.2313,271.9053 477.4913,269.3393 476.7133,266.8423 C476.0263,264.6403 474.6473,262.8463 472.8923,261.6213 L401.3153,205.2023 C401.2963,205.1873 401.2773,205.1713 401.2573,205.1563 L401.2353,205.1393 C401.2203,205.1263 401.2033,205.1173 401.1873,205.1053 C400.9103,204.8893 400.6203,204.6893 400.3183,204.5023 C400.2283,204.4473 400.1373,204.3973 400.0463,204.3453 C399.8143,204.2113 399.5773,204.0853 399.3323,203.9693 C399.2163,203.9153 399.1003,203.8613 398.9833,203.8103 C398.7563,203.7143 398.5253,203.6283 398.2903,203.5483 C398.1613,203.5043 398.0333,203.4563 397.9043,203.4173 C397.8553,203.4023 397.8103,203.3833 397.7613,203.3693 C397.5393,203.3063 397.3173,203.2633 397.0933,203.2173 C397.0023,203.1973 396.9123,203.1713 396.8203,203.1543 C396.4453,203.0863 396.0713,203.0413 395.6993,203.0163 C395.6463,203.0133 395.5933,203.0153 395.5403,203.0133 C395.2163,202.9973 394.8943,202.9953 394.5753,203.0103 C394.4733,203.0153 394.3723,203.0263 394.2713,203.0343 C393.9923,203.0553 393.7173,203.0883 393.4443,203.1323 C393.3343,203.1503 393.2263,203.1683 393.1163,203.1903 C392.8273,203.2473 392.5413,203.3183 392.2593,203.4003 C392.1973,203.4193 392.1333,203.4273 392.0713,203.4473 L172.0103,272.0893 C171.9523,272.1073 171.8983,272.1353 171.8403,272.1543 C171.5563,272.2483 171.2763,272.3543 171.0003,272.4743 C170.9013,272.5173 170.8043,272.5623 170.7073,272.6083 C170.4533,272.7283 170.2053,272.8603 169.9613,273.0023 C169.8753,273.0523 169.7883,273.1003 169.7043,273.1523 C169.4303,273.3233 169.1633,273.5083 168.9043,273.7073 C168.8643,273.7383 168.8213,273.7653 168.7823,273.7963 C168.4893,274.0293 168.2073,274.2793 167.9363,274.5493 C167.8713,274.6143 167.8133,274.6863 167.7493,274.7533 C167.5923,274.9193 167.4333,275.0813 167.2853,275.2603 C167.2523,275.2993 167.2273,275.3423 167.1953,275.3813 C167.1103,275.4863 167.0333,275.5973 166.9533,275.7063 C166.8043,275.9073 166.6613,276.1113 166.5303,276.3203 C166.4633,276.4263 166.3983,276.5353 166.3353,276.6453 C166.1983,276.8823 166.0733,277.1223 165.9583,277.3673 C165.9143,277.4583 165.8683,277.5493 165.8283,277.6433 C165.6833,277.9763 165.5543,278.3123 165.4473,278.6553 C165.4433,278.6673 165.4373,278.6793 165.4333,278.6913 L165.4283,278.7093 C165.4193,278.7383 165.4093,278.7673 165.4013,278.7963 L138.4293,366.4413 C138.4163,366.4853 138.4113,366.5313 138.3983,366.5753 C138.3383,366.7793 138.2993,366.9913 138.2523,367.2013 C138.1943,367.4573 138.1353,367.7113 138.0983,367.9683 C138.0903,368.0253 138.0723,368.0793 138.0643,368.1363 C138.0463,368.2853 138.0533,368.4323 138.0413,368.5803 C138.0203,368.8443 138.0003,369.1073 138.0003,369.3703 C137.9993,369.5833 138.0143,369.7933 138.0273,370.0043 C138.0433,370.2543 138.0623,370.5033 138.0963,370.7513 C138.1263,370.9663 138.1663,371.1753 138.2103,371.3863 C138.2593,371.6273 138.3143,371.8653 138.3803,372.1013 C138.4393,372.3083 138.5063,372.5113 138.5783,372.7143 C138.6603,372.9453 138.7493,373.1723 138.8483,373.3963 C138.9343,373.5943 139.0263,373.7863 139.1253,373.9773 C139.2383,374.1943 139.3593,374.4063 139.4893,374.6163 C139.6033,374.8013 139.7213,374.9833 139.8483,375.1613 C139.9873,375.3593 140.1373,375.5483 140.2913,375.7353 C140.4353,375.9093 140.5813,376.0803 140.7363,376.2443 C140.8033,376.3153 140.8593,376.3943 140.9283,376.4633 C141.0333,376.5683 141.1533,376.6533 141.2633,376.7533 C141.4263,376.9033 141.5913,377.0503 141.7663,377.1903 C141.9703,377.3523 142.1823,377.5003 142.3973,377.6453 C142.5143,377.7243 142.6193,377.8173 142.7403,377.8923 L359.4963,511.4013 C359.5003,511.4043 359.5033,511.4053 359.5063,511.4063 C359.5663,511.4433 359.6273,511.4803 359.6883,511.5153 C359.7413,511.5473 359.7973,511.5753 359.8513,511.6053 C360.0323,511.7063 360.2153,511.8053 360.4023,511.8943 C360.4323,511.9093 360.4623,511.9223 360.4933,511.9373 C360.5743,511.9753 360.6573,512.0103 360.7393,512.0463 C360.9243,512.1283 361.1113,512.2003 361.3003,512.2703 C361.3143,512.2753 361.3283,512.2823 361.3433,512.2883 C361.3763,512.3003 361.4083,512.3143 361.4423,512.3263 C361.4913,512.3443 361.5413,512.3593 361.5913,512.3763 C361.8653,512.4663 362.1423,512.5483 362.4223,512.6143 C362.4763,512.6283 362.5313,512.6353 362.5853,512.6473 C362.8293,512.7013 363.0753,512.7463 363.3233,512.7813 C363.3723,512.7883 363.4203,512.7983 363.4693,512.8043 C363.5243,512.8113 363.5813,512.8133 363.6373,512.8183 C363.8593,512.8443 364.0823,512.8603 364.3063,512.8703 C364.3563,512.8723 364.4043,512.8803 364.4553,512.8823 C364.4723,512.8833 364.4883,512.8813 364.5063,512.8813 C364.5363,512.8813 364.5663,512.8823 364.5963,512.8833 C364.7683,512.8863 364.9413,512.8803 365.1133,512.8733 C365.1933,512.8713 365.2743,512.8703 365.3533,512.8663 C365.4253,512.8623 365.4953,512.8563 365.5663,512.8493 C365.6163,512.8453 365.6673,512.8383 365.7173,512.8333 C365.7933,512.8263 365.8693,512.8173 365.9453,512.8083 C366.0163,512.8003 366.0883,512.7953 366.1583,512.7853 C366.2953,512.7663 366.4313,512.7383 366.5683,512.7123 C366.6263,512.7023 366.6843,512.6923 366.7413,512.6803 C366.7563,512.6773 366.7703,512.6753 366.7843,512.6723 C366.8383,512.6603 366.8933,512.6543 366.9453,512.6413 C367.2043,512.5833 367.4613,512.5153 367.7153,512.4363 L367.7163,512.4353 L367.7173,512.4353 C367.9723,512.3563 368.2213,512.2663 368.4663,512.1673 C368.5183,512.1463 368.5693,512.1203 368.6213,512.0983 C368.6333,512.0933 368.6453,512.0883 368.6573,512.0833 C368.7113,512.0603 368.7653,512.0353 368.8193,512.0103 C368.9453,511.9543 369.0733,511.9003 369.1973,511.8383 C369.2623,511.8053 369.3243,511.7673 369.3893,511.7343 C369.4553,511.6993 369.5213,511.6633 369.5863,511.6273 C369.6303,511.6023 369.6763,511.5793 369.7213,511.5533 C369.7823,511.5193 369.8433,511.4843 369.9043,511.4463 C369.9733,511.4043 370.0413,511.3583 370.1103,511.3143 C370.2543,511.2213 370.3983,511.1283 370.5373,511.0303 C370.5613,511.0123 370.5863,510.9943 370.6103,510.9773 C370.6243,510.9673 370.6393,510.9593 370.6533,510.9493 C370.6933,510.9193 370.7293,510.8843 370.7693,510.8533 C370.9483,510.7193 371.1213,510.5793 371.2893,510.4323 C371.3323,510.3953 371.3773,510.3623 371.4193,510.3243 C371.4573,510.2913 371.4913,510.2563 371.5273,510.2223 C371.7103,510.0523 371.8873,509.8753 372.0573,509.6923 C372.0953,509.6523 372.1363,509.6143 372.1733,509.5723 C372.3653,509.3593 372.5473,509.1343 372.7213,508.9043 C372.7513,508.8623 372.7853,508.8213 372.8153,508.7793 C372.8373,508.7493 372.8553,508.7173 372.8773,508.6883 C372.8853,508.6753 372.8923,508.6643 372.9003,508.6523 C373.0163,508.4873 373.1283,508.3203 373.2353,508.1483 C373.2823,508.0723 373.3303,507.9963 373.3753,507.9193 C373.3923,507.8903 373.4093,507.8613 373.4253,507.8313 C373.5283,507.6523 373.6233,507.4663 373.7163,507.2783 C373.7423,507.2233 373.7713,507.1703 373.7973,507.1153 C373.8273,507.0503 373.8573,506.9863 373.8863,506.9203 C373.8873,506.9173 373.8893,506.9143 373.8903,506.9113 Z" id="Fill-1" fill="#FFFFFF" mask="url(#mask-2)"></path>
            </g>
        </g>
    </g>
</svg>