<svg viewBox="0 0 88 106" version="1.1" xmlns="http://www.w3.org/2000/svg" xmlns:xlink="http://www.w3.org/1999/xlink">
    <defs>
        <polygon id="path-1" points="0.143042233 0.178704446 20.9085377 0.178704446 20.9085377 27.8196112 0.143042233 27.8196112"></polygon>
        <polygon id="path-3" points="0.000365230249 0.0834521739 64.8323884 0.0834521739 64.8323884 21 0.000365230249 21"></polygon>
    </defs>
    <g id="3_MansBruno_Results_desktop" transform="translate(-554.000000, -3197.000000)">
        <g id="Zimulis_ikona" transform="translate(554.000000, 3197.000000)">
            <path d="M52,9.26577202 L35.3429257,19 L31.817357,12.8189044 C30.1352409,9.86986948 31.1325937,6.10052401 34.0458171,4.39680212 L40.1527693,0.82696656 C43.0669094,-0.875827372 46.7932319,0.135641503 48.4771814,3.08374849 L52,9.26577202 Z" id="Fill-1" fill="#FFFFFF"></path>
            <polygon id="Fill-3" fill="#FFFFFF" points="82 60.4634618 65.2297011 70 38 23.5374474 43.5900996 20.3579952 53.7772417 37.742698 59.3691872 34.5632458 49.1811222 17.1803614 54.7712218 14"></polygon>
            <g id="Group-7" transform="translate(67.000000, 63.000000)">
                <mask id="mask-2" fill="white">
                    <use xlink:href="#path-1"></use>
                </mask>
                <g id="Clip-6"></g>
                <polygon id="Fill-5" fill="#FFFFFF" mask="url(#mask-2)" points="20.9088971 27.8196112 0.143042233 9.99404301 16.4706887 0.178704446"></polygon>
            </g>
            <g id="Group-10" transform="translate(0.000000, 85.000000)">
                <mask id="mask-4" fill="white">
                    <use xlink:href="#path-3"></use>
                </mask>
                <g id="Clip-9"></g>
                <path d="M61.4695293,0.0834521739 L33.4974575,0.0834521739 C31.6384356,0.0834521739 30.1327739,1.58906087 30.1327739,3.44527826 C30.1327739,3.50553913 30.14647,3.56123478 30.1492092,3.61966957 C30.1291216,4.68975652 30.5801809,5.75527826 31.4841258,6.46927826 L39.6981541,12.9363652 L4.03068103,12.9363652 C1.80551574,12.9363652 0.000365230249,14.7423652 0.000365230249,16.9656261 C0.000365230249,19.1934522 1.80551574,20.9976261 4.03068103,21.0003652 L49.6561568,21.0003652 C51.8822352,20.9976261 53.6882988,19.1934522 53.6882988,16.9683652 C53.6901249,15.9348 53.2892847,15.0034957 52.6510449,14.2867565 C52.471169,14.0521043 52.2693793,13.8274957 52.0255881,13.6348435 L43.3541089,6.81075652 L61.4695293,6.81075652 C63.3248989,6.80893043 64.8323868,5.30149565 64.8323868,3.44710435 C64.8342129,1.58906087 63.3248989,0.0834521739 61.4695293,0.0834521739" id="Fill-8" fill="#FFFFFF" mask="url(#mask-4)"></path>
            </g>
        </g>
    </g>
</svg>