<svg viewBox="0 0 562 633" version="1.1" xmlns="http://www.w3.org/2000/svg" xmlns:xlink="http://www.w3.org/1999/xlink">
    <defs>
        <polygon id="path-1" points="0 0 302.471585 0 302.471585 333.765961 0 333.765961"></polygon>
        <polygon id="path-3" points="152.9853 15.3281 429.014 15.3281 429.014 323.517513 152.9853 323.517513"></polygon>
    </defs>
    <g id="wallet" stroke="none" stroke-width="1" fill="none" fill-rule="evenodd" opacity="0.05">
        <g id="Page-1">
            <g id="Group" transform="translate(126.000000, 112.000000)">
                <mask id="mask-2" fill="white">
                    <use xlink:href="#path-1"></use>
                </mask>
                <g id="Clip-2"></g>
                <path d="M215.7759,238.3807 C206.4669,235.2987 203.3659,219.3777 208.8459,202.8247 C214.3249,186.2727 226.3129,175.3457 235.6219,178.4277 C244.9379,181.5117 248.0319,197.4307 242.5529,213.9837 C237.0739,230.5357 225.0909,241.4647 215.7759,238.3807 M289.7359,112.1727 L85.9019,0.9547 C76.0789,-2.2973 65.4679,3.0267 62.2159,12.8497 L0.9549,197.9087 C-2.3011,207.7437 3.0399,218.3407 12.8629,221.5927 L216.6969,332.8107 C226.5259,336.0637 237.1179,330.7407 240.3709,320.9117 L301.3609,137.5447 C304.6119,127.7217 300.7229,118.4557 289.7359,112.1727" id="Fill-1" fill="#FFFFFF" mask="url(#mask-2)"></path>
                <mask id="mask-4" fill="white">
                    <use xlink:href="#path-3"></use>
                </mask>
                <g id="Clip-5"></g>
                <path d="M152.9853,15.3281 L305.4263,94.4151 C322.3863,102.9771 329.9463,120.5451 324.3923,137.3221 L322.0373,144.3761 L373.7083,161.4811 C378.5253,163.0761 381.2533,167.8951 379.8113,172.2521 C378.3683,176.6091 373.3043,178.8491 368.4873,177.2541 L316.7983,160.1441 L307.6273,187.7291 L333.1993,196.1951 C338.0163,197.7891 340.7503,202.6111 339.3103,206.9621 C337.8673,211.3181 332.7973,213.5571 327.9803,211.9621 L302.3953,203.4931 L270.6263,299.0871 L341.5533,322.5671 C351.3643,325.8151 361.9643,320.4681 365.2163,310.6451 L427.9173,121.2351 C431.4423,110.5861 426.3333,105.8161 414.5923,101.9291 L152.9853,15.3281 Z" id="Fill-4" fill="#FFFFFF" mask="url(#mask-4)"></path>
                <rect id="Rectangle-7" mask="url(#mask-4)" x="-126" y="-112" width="562" height="633"></rect>
            </g>
            <rect id="Rectangle" x="0" y="0" width="562" height="633"></rect>
        </g>
    </g>
</svg>