<svg viewBox="0 0 203 93" version="1.1" xmlns="http://www.w3.org/2000/svg" xmlns:xlink="http://www.w3.org/1999/xlink">
    <defs>
        <polygon id="path-1" points="0.316398532 0.793 45.7212204 0.793 45.7212204 61.1284837 0.316398532 61.1284837"></polygon>
    </defs>
    <g id="Symbols" stroke="none" stroke-width="1" fill="none" fill-rule="evenodd">
        <g id="Group-3" transform="translate(87.000000, 0.207200)">
            <mask id="mask-2" fill="white">
                <use xlink:href="#path-1"></use>
            </mask>
            <g id="Clip-2"></g>
            <path d="M45.7207,3.0351 C45.7497,3.3291 44.5667,5.7081 42.1697,10.1761 C39.6767,14.8011 38.3597,17.4901 38.2137,18.2461 C37.5777,21.4601 36.3627,29.1581 34.5667,41.3421 C33.7277,47.2801 33.3187,51.8041 33.3387,54.9131 C33.3797,57.5011 33.3757,58.9101 33.3247,59.1381 C33.1147,60.3441 32.4587,61.0031 31.3587,61.1151 C30.2217,61.2311 29.5837,60.5931 29.4417,59.1991 C29.1837,56.6701 29.8697,50.3211 31.5017,40.1541 C32.3757,35.2871 33.2307,30.4031 34.0647,25.5031 C31.7627,29.8121 29.0757,34.8831 26.0027,40.7151 C21.7897,49.1811 18.7307,53.5131 16.8257,53.7071 C15.2487,53.8671 13.7797,52.9061 12.4197,50.8211 C11.9817,50.1641 11.6347,48.9391 11.3787,47.1501 C11.1887,45.6511 11.0177,44.1491 10.8647,42.6461 C9.8337,44.5291 8.4977,47.5921 6.8547,51.8341 C5.3047,55.8811 4.1797,58.4761 3.4817,59.6221 C3.1737,59.5061 2.6527,59.4841 1.9197,59.5591 C1.4067,59.6111 0.8757,58.9431 0.3267,57.5561 C0.2637,56.9311 0.4897,56.1491 1.0037,55.2071 C1.5197,54.2661 2.0277,53.3451 2.5277,52.4411 C3.8977,49.8941 5.1127,47.2701 6.1707,44.5691 C7.6237,41.3841 9.6167,36.5881 12.1497,30.1811 C12.8857,27.5881 13.6217,24.9941 14.3577,22.3991 C15.3517,19.0751 16.5297,16.6411 17.8907,15.0941 C18.5027,14.9211 19.0107,14.8131 19.4137,14.7721 C20.7697,14.6351 21.5137,15.2071 21.6447,16.4901 C21.6857,16.8931 21.6777,17.3571 21.6197,17.8821 C20.2897,20.4621 18.9437,23.0621 17.5807,25.6821 C15.1417,31.1911 14.2097,36.7681 14.7857,42.4141 C14.9947,44.4671 15.1027,45.5301 15.1107,45.6021 C15.3217,46.9521 15.7227,47.9841 16.3157,48.7021 C18.3437,47.1621 20.5497,44.1031 22.9367,39.5271 C27.6897,30.5611 30.4737,25.3501 31.2887,23.8961 C31.8627,22.9861 32.8017,21.2981 34.1067,18.8311 C34.5707,17.9321 35.0977,16.3781 35.6877,14.1701 C36.3857,11.5801 36.9107,9.8221 37.2607,8.8981 C38.1657,6.5091 38.9047,4.8411 39.4737,3.8931 C40.6507,1.9961 42.0277,0.9671 43.6037,0.8061 C44.8497,0.6801 45.5557,1.4231 45.7207,3.0351" id="Fill-1" fill="#4EFFFF" mask="url(#mask-2)"></path>
        </g>
        <path d="M136.8965,39.3205 C136.7505,39.3355 136.4765,39.2705 136.0755,39.1265 C135.6725,38.9825 135.3815,38.9195 135.2005,38.9375 C134.5795,39.0015 133.7205,39.6265 132.6265,40.8115 C131.9625,41.5455 131.3025,42.2995 130.6455,43.0685 C129.8475,43.9275 129.0745,45.0995 128.3225,46.5845 C127.5705,48.0685 127.1685,49.2765 127.1155,50.2075 C127.1885,50.1995 127.3065,50.2705 127.4695,50.4215 C127.6315,50.5715 127.8055,50.6365 127.9875,50.6185 C128.5715,50.5585 130.0235,49.2625 132.3445,46.7295 C134.4295,44.4055 135.6105,42.9705 135.8855,42.4245 C136.4095,41.4075 136.7455,40.3735 136.8965,39.3205 Z M152.7165,46.2645 C152.6505,47.7905 151.4195,49.6195 149.0255,51.7535 C146.6315,53.8845 144.7385,55.0235 143.3445,55.1655 C143.1615,55.1835 142.9845,55.1745 142.8145,55.1355 C142.6435,55.0975 142.4665,55.0885 142.2835,55.1065 C141.6245,55.1745 140.7755,54.8515 139.7405,54.1425 C138.8635,53.5285 138.2905,52.9955 138.0215,52.5405 C137.1345,51.1125 136.6195,49.6825 136.4735,48.2535 C136.4205,47.7405 136.4235,47.2215 136.4815,46.6965 C134.9815,48.3325 133.4825,49.9845 131.9865,51.6555 C130.0975,53.4785 128.2735,54.4785 126.5145,54.6575 C125.8895,54.7205 125.2295,54.2335 124.5315,53.1935 C123.8845,52.2965 123.5275,51.5165 123.4595,50.8575 C123.2285,48.5845 124.7515,45.2625 128.0285,40.8905 C131.3045,36.5195 133.9905,34.2465 136.0845,34.0695 C136.7075,34.0065 137.1685,34.1805 137.4705,34.5945 C137.7715,35.0085 138.0555,35.4245 138.3205,35.8415 C138.5205,35.2655 138.7375,34.6705 138.9715,34.0525 C139.3825,33.0105 139.8285,32.4665 140.3045,32.4175 C140.7805,32.3685 141.4205,32.6555 142.2255,33.2775 C142.5265,33.6905 142.5235,34.5615 142.2145,35.8885 C141.5565,37.0675 141.0885,38.1155 140.8125,39.0325 C140.5085,40.0635 140.2345,41.5365 139.9845,43.4505 C139.7495,45.1415 139.6505,46.1715 139.6885,46.5365 C139.8155,47.7835 140.2085,48.9105 140.8665,49.9175 C141.6995,51.2035 142.7405,51.7815 143.9875,51.6545 C145.0125,51.5495 146.3325,50.8605 147.9435,49.5855 C149.3125,48.4825 150.6655,47.4005 152.0015,46.3375 L152.7165,46.2645 Z" id="Fill-4" fill="#4EFFFF"></path>
        <path d="M161.9297,46.715 C161.7737,45.916 161.8647,44.435 162.1997,42.27 C162.5347,40.107 162.7057,39.061 162.7127,39.134 C161.1727,41.107 159.9507,42.749 159.0487,44.064 C157.3737,46.531 156.2407,48.498 155.6497,49.966 C155.4657,49.986 155.1567,50.127 154.7207,50.395 C154.2847,50.661 153.9757,50.804 153.7917,50.822 C153.3887,50.863 152.9297,50.632 152.4157,50.129 C151.9017,49.626 151.6367,49.302 151.6217,49.154 C151.5957,48.899 151.8487,46.937 152.3837,43.271 C152.9167,39.605 153.3907,36.714 153.8057,34.598 C153.8777,34.22 154.1577,33.876 154.6457,33.567 C155.1317,33.258 155.5587,33.085 155.9257,33.048 C156.1087,33.029 156.3947,33.111 156.7837,33.293 C157.3307,33.571 157.6217,33.708 157.6587,33.704 C157.8407,34.39 157.6947,35.683 157.2207,37.583 C156.6857,39.601 156.4397,40.811 156.4807,41.214 C156.4987,41.398 156.5697,41.538 156.6907,41.638 C157.4167,40.785 158.4367,39.339 159.7477,37.297 C161.0587,35.256 162.0617,33.83 162.7567,33.018 C163.9237,31.752 165.0577,31.062 166.1577,30.949 C166.9267,30.871 167.3797,31.491 167.5137,32.811 C167.6487,34.131 167.2767,36.391 166.3997,39.592 C165.5217,42.793 165.1387,44.944 165.2507,46.043 C165.4497,47.986 166.2807,48.883 167.7477,48.734 C168.3327,48.674 170.0217,47.612 172.8127,45.55 C172.9307,45.612 173.0667,45.683 173.2227,45.759 C173.3777,45.835 173.4297,45.969 173.3747,46.159 C172.9687,47.276 172.0877,48.523 170.7287,49.902 C169.3677,51.281 168.2487,52.016 167.3687,52.106 C164.4727,52.401 162.6597,50.605 161.9297,46.715" id="Fill-6" fill="#4EFFFF"></path>
        <path d="M190.6514,29.2306 C190.6704,29.4146 190.5784,29.6926 190.3754,30.0646 C190.1724,30.4376 190.0634,30.7356 190.0494,30.9596 C189.8584,30.9056 189.4114,30.6906 188.7074,30.3186 C188.3934,30.1656 187.9534,29.4696 187.3824,28.2306 C187.2094,27.9896 186.9014,27.8726 186.4584,27.8796 C185.3824,27.8786 184.7304,28.3716 184.4974,29.3586 C184.4704,29.4706 184.4554,30.2336 184.4524,31.6406 C184.4524,32.0116 184.9594,33.8866 185.9694,37.2636 C186.9804,40.6436 187.4904,43.1096 187.5024,44.6646 C187.4974,46.4436 186.9444,48.1106 185.8444,49.6676 C184.4464,51.5866 182.5754,52.6676 180.2294,52.9066 C178.9104,53.0406 177.7924,52.8016 176.8794,52.1926 C175.9634,51.5816 175.4454,50.6706 175.3224,49.4616 C175.2744,48.9856 175.2964,48.4836 175.3904,47.9546 C175.6994,46.2556 176.2744,44.9946 177.1164,44.1676 C177.6654,43.7416 178.2164,43.3336 178.7694,42.9426 C179.1354,42.9056 179.5774,42.8796 180.0954,42.8636 C179.8024,43.6346 179.5104,44.4056 179.2194,45.1746 C178.7264,46.5226 178.5134,47.5246 178.5814,48.1846 C178.6674,49.0286 179.2414,49.3956 180.3044,49.2876 C181.4054,49.1746 182.3564,48.4306 183.1614,47.0506 C183.9644,45.6726 184.3324,44.2846 184.2634,42.8826 C184.2774,42.6596 183.7644,40.8976 182.7244,37.5946 C181.6294,34.1146 181.0804,32.3556 181.0764,32.3186 C181.0054,31.9916 180.9524,31.6456 180.9154,31.2786 C180.7284,29.4466 181.0694,27.7166 181.9414,26.0906 C182.8124,24.4646 184.0024,23.5936 185.5084,23.4766 C187.0114,23.3236 188.2824,23.9716 189.3184,25.4216 C190.2194,26.6266 190.6634,27.8956 190.6514,29.2306" id="Fill-8" fill="#4EFFFF"></path>
        <path d="M0,57.7702 C0,38.7512 15.418,23.3332 34.437,23.3332 C53.456,23.3332 68.874,38.7512 68.874,57.7702 C68.874,76.7892 53.456,92.2072 34.437,92.2072 C15.418,92.2072 0,76.7892 0,57.7702" id="Fill-10" fill="#558CAA"></path>
        <path d="M54.1487,59.9209 C54.1487,59.9209 58.9107,57.1709 58.1907,60.9159 C57.4707,64.6619 56.0487,67.4789 55.8937,68.4389 C55.7377,69.3979 53.1277,73.5949 52.0207,69.4399 C52.0207,69.4399 53.6237,83.9889 37.6447,87.6139 C37.6447,87.6139 22.0427,89.1399 18.1407,71.2619 C18.1407,71.2619 17.5927,74.4839 15.2087,71.9219 C12.8257,69.3599 7.5767,59.7879 13.8907,62.4829 C13.8907,62.4829 12.5827,52.9949 14.0457,49.0549 C15.5087,45.1159 19.1587,40.0029 19.1587,40.0029 L32.2147,35.5319 L41.1517,36.2049 L45.9007,39.1609 C45.9007,39.1609 48.8347,39.0819 51.0337,44.3709 C53.2317,49.6609 54.1487,59.9209 54.1487,59.9209" id="Fill-12" fill="#FDEDE0"></path>
        <path d="M54.1487,59.9209 C54.1487,59.9209 58.9107,57.1709 58.1907,60.9159 C57.4707,64.6619 56.0487,67.4789 55.8937,68.4389 C55.7377,69.3979 53.1277,73.5949 52.0207,69.4399 C52.0207,69.4399 52.1047,85.4269 37.5207,87.8849 C37.5207,87.8849 22.0427,89.1399 18.1407,71.2619 C18.1407,71.2619 17.5927,74.4839 15.2087,71.9219 C12.8257,69.3599 7.5767,59.7879 13.8907,62.4829" id="Stroke-14" stroke="#231F20" stroke-width="1.525" stroke-linecap="round" stroke-linejoin="round"></path>
        <path d="M27.8212,77.7703 C27.8212,77.7703 39.7702,81.1433 45.8482,72.7193" id="Stroke-16" stroke="#231F20" stroke-width="1.525" stroke-linecap="round" stroke-linejoin="round"></path>
        <path d="M31.9449,73.2318 C31.9449,73.2318 39.2329,76.9278 40.7299,70.9808" id="Stroke-18" stroke="#231F20" stroke-width="1.525" stroke-linecap="round" stroke-linejoin="round"></path>
        <path d="M23.4497,65.2491 C23.4497,65.2491 25.2567,59.9381 30.7157,63.1691" id="Stroke-20" stroke="#231F20" stroke-width="1.525" stroke-linecap="round" stroke-linejoin="round"></path>
        <path d="M40.4286,62.811 C40.4286,62.811 42.8346,58.24 47.6656,62.544" id="Stroke-22" stroke="#231F20" stroke-width="1.525" stroke-linecap="round" stroke-linejoin="round"></path>
        <path d="M20.4652,58.1321 C20.4652,58.1321 24.0842,55.4241 30.3302,56.7191" id="Stroke-24" stroke="#231F20" stroke-width="3.28" stroke-linecap="round" stroke-linejoin="round"></path>
        <path d="M37.6448,55.9661 C37.6448,55.9661 43.5528,53.2621 48.6908,55.5581" id="Stroke-26" stroke="#231F20" stroke-width="3.28" stroke-linecap="round" stroke-linejoin="round"></path>
        <path d="M61.085,52.071 C61.242,51.947 61.311,51.741 61.259,51.548 C61.207,51.354 61.044,51.211 60.845,51.183 C59.666,51.017 58.322,50.444 56.849,49.478 C56.005,42.215 52.001,26.076 33.127,27.214 C18.582,28.083 14.17,36.311 12.839,41.487 C11.059,41.138 7.84,41.21 7.621,41.926 C7.582,42.053 7.596,42.191 7.658,42.308 C7.72,42.425 7.828,42.514 7.954,42.553 C8.866,42.832 9.776,43.233 10.671,43.748 C9.314,44.224 7.656,45.102 7.733,45.662 C7.771,45.933 8.023,46.122 8.293,46.091 C9.408,45.95 10.462,46.023 11.304,46.151 C9.764,48.238 7.289,53.271 11.873,60.308 C14.608,64.508 15.744,66.252 16.315,66.914 C16.552,67.189 16.692,67.277 16.809,67.277 C16.892,67.277 16.962,67.233 17.048,67.179 C17.439,66.937 17.288,66.582 17.049,66.17 C17.316,64.515 19.075,52.988 16.94,48.492 C17.676,47.629 20.351,44.656 24.184,42.312 C30.182,38.643 36.001,38.2 41.478,40.991 C54.588,47.674 52.354,62.126 52.33,62.272 C52.29,62.509 52.426,62.741 52.652,62.823 C52.878,62.906 53.132,62.814 53.254,62.607 C54.229,60.947 55.459,59.459 55.891,59.471 C56.037,59.506 56.249,59.456 56.368,59.362 C56.85,58.983 57.024,57.024 57.086,55.66 C58.629,57.058 59.857,56.879 59.916,56.867 C60.114,56.834 60.274,56.686 60.321,56.49 C60.368,56.295 60.293,56.091 60.131,55.971 C59.064,55.185 58.071,53.884 57.173,52.101 C59.772,53.067 61.027,52.116 61.085,52.071" id="Fill-28" fill="#231F20"></path>
        <path d="M26.1888,65.1481 C26.1648,64.5041 26.6678,63.9631 27.3108,63.9401 C27.9548,63.9161 28.4958,64.4181 28.5198,65.0621 C28.5428,65.7061 28.0408,66.2471 27.3968,66.2701 C26.7538,66.2941 26.2128,65.7921 26.1888,65.1481" id="Fill-30" fill="#231F20"></path>
        <path d="M42.4296,63.3821 C42.4056,62.7381 42.9086,62.1971 43.5516,62.1741 C44.1956,62.1501 44.7366,62.6521 44.7606,63.2961 C44.7836,63.9401 44.2816,64.4811 43.6376,64.5041 C42.9946,64.5281 42.4536,64.0261 42.4296,63.3821" id="Fill-32" fill="#231F20"></path>
        <path d="M86.729,86.1261 C88.415,86.1261 89.242,84.9691 89.242,83.6461 C89.242,82.3231 88.448,81.2321 86.762,81.2321 L83.257,81.2321 L83.257,86.1261 L86.729,86.1261 Z M86.233,76.6031 C87.687,76.6031 88.316,75.5451 88.316,74.4211 C88.316,73.3291 87.687,72.4031 86.134,72.4031 L83.257,72.4031 L83.257,76.6031 L86.233,76.6031 Z M77.47,67.4431 L86.167,67.4431 C90.895,67.4431 94.202,69.5601 94.202,73.6271 C94.202,75.6111 93.243,77.6281 91.457,78.6531 L91.457,78.7191 C94.168,79.5461 95.161,81.9601 95.161,84.0431 C95.161,89.2011 90.862,91.0861 86.167,91.0861 L77.47,91.0861 L77.47,67.4431 Z" id="Fill-34" fill="#FFFFFF"></path>
        <path d="M109.5459,78.1574 C111.3979,78.1574 112.5549,77.1324 112.5549,75.2474 C112.5549,73.4624 111.8939,72.4034 108.9839,72.4034 L107.0329,72.4034 L107.0329,78.1574 L109.5459,78.1574 Z M101.2459,67.4434 L109.4799,67.4434 C111.8939,67.4434 113.0509,67.6094 114.0759,68.0064 C116.7539,69.0314 118.4409,71.4444 118.4409,74.8844 C118.4409,77.3964 117.2509,80.1404 114.9029,81.3314 L114.9029,81.3974 C114.9029,81.3974 115.2329,81.8274 115.7959,82.8194 L120.3909,91.0864 L113.9439,91.0864 L109.7439,83.1174 L107.0329,83.1174 L107.0329,91.0864 L101.2459,91.0864 L101.2459,67.4434 Z" id="Fill-36" fill="#FFFFFF"></path>
        <path d="M125.2544,67.4435 L131.0404,67.4435 L131.0404,82.3895 C131.0404,84.8695 132.6604,86.1925 135.1414,86.1925 C137.6204,86.1925 139.2404,84.8695 139.2404,82.3895 L139.2404,67.4435 L145.0274,67.4435 L145.0274,82.3895 C145.0274,87.7135 141.1254,91.4825 135.1734,91.4825 C129.1554,91.4825 125.2544,87.7135 125.2544,82.3895 L125.2544,67.4435 Z" id="Fill-38" fill="#FFFFFF"></path>
        <path d="M152.2378,67.4435 L158.0908,67.4435 L164.6368,78.4875 C165.5638,80.0425 166.6218,82.5215 166.6218,82.5215 L166.6878,82.5215 C166.6878,82.5215 166.4238,79.9755 166.4238,78.4875 L166.4238,67.4435 L172.2098,67.4435 L172.2098,91.0865 L166.3898,91.0865 L159.8098,80.0755 C158.8838,78.5205 157.8258,76.0415 157.8258,76.0415 L157.7598,76.0415 C157.7598,76.0415 158.0248,78.5875 158.0248,80.0755 L158.0248,91.0865 L152.2378,91.0865 L152.2378,67.4435 Z" id="Fill-40" fill="#FFFFFF"></path>
        <path d="M190.4966,86.1926 C194.0346,86.1926 196.8786,83.1506 196.8786,79.1166 C196.8786,75.2476 194.0346,72.3376 190.4966,72.3376 C186.9596,72.3376 184.1156,75.2476 184.1156,79.1166 C184.1156,83.1506 186.9596,86.1926 190.4966,86.1926 M190.4966,67.0466 C197.6396,67.0466 202.8636,72.3376 202.8636,79.1166 C202.8636,86.0596 197.6396,91.4826 190.4966,91.4826 C183.3546,91.4826 178.1306,86.0596 178.1306,79.1166 C178.1306,72.3376 183.3546,67.0466 190.4966,67.0466" id="Fill-42" fill="#FFFFFF"></path>
    </g>
</svg>