<svg viewBox="0 0 241 43" version="1.1" xmlns="http://www.w3.org/2000/svg" xmlns:xlink="http://www.w3.org/1999/xlink">
  <defs>
    <polygon id="path-1" points="0 42 240.893 42 240.893 0.162 0 0.162"></polygon>
  </defs>
  <g id="Symbols" stroke="none" stroke-width="1" fill="none" fill-rule="evenodd">
    <g id="LAFPA_logo">
      <g id="Page-1">
        <polygon id="Fill-1" fill="#FFFFFF" points="55.2051 1.1622 55.2051 10.7102 60.8181 10.7102 60.8181 9.5472 56.5441 9.5472 56.5441 1.1622"></polygon>
        <g id="Group-61" transform="translate(0.000000, 0.837600)">
          <path d="M67.9405,7.1274 L64.3435,7.1274 L63.3975,9.8724 L62.0175,9.8724 L65.4535,0.3244 L66.8595,0.3244 L70.2935,9.8724 L68.9005,9.8724 L67.9405,7.1274 Z M66.1425,1.6364 C66.1425,1.6364 65.9265,2.5014 65.7635,2.9894 L64.6955,6.0184 L67.5895,6.0184 L66.5345,2.9894 C66.3725,2.5014 66.1695,1.6364 66.1695,1.6364 L66.1425,1.6364 Z" id="Fill-2" fill="#FFFFFF"></path>
          <polygon id="Fill-4" fill="#FFFFFF" points="73.2201 1.4875 69.9471 1.4875 69.9471 0.3245 77.8321 0.3245 77.8321 1.4875 74.5591 1.4875 74.5591 9.8725 73.2201 9.8725"></polygon>
          <path d="M78.9361,0.3247 L80.3831,0.3247 L82.7501,7.0737 C82.9261,7.5867 83.1151,8.3847 83.1151,8.3847 L83.1411,8.3847 C83.1411,8.3847 83.3311,7.5867 83.5071,7.0737 L85.9011,0.3247 L87.3211,0.3247 L83.8051,9.8727 L82.4651,9.8727 L78.9361,0.3247 Z" id="Fill-6" fill="#FFFFFF"></path>
          <mask id="mask-2" fill="white">
            <use xlink:href="#path-1"></use>
          </mask>
          <g id="Clip-9"></g>
          <polygon id="Fill-8" fill="#FFFFFF" mask="url(#mask-2)" points="89.049 9.873 90.388 9.873 90.388 0.325 89.049 0.325"></polygon>
          <path d="M92.2634,6.6538 L93.5894,6.6538 L93.5894,7.0598 C93.5894,8.3578 94.3464,8.8048 95.1034,8.8048 C95.8474,8.8048 96.5914,8.3718 96.5914,7.1138 L96.5914,1.4878 L94.1844,1.4878 L94.1844,0.3248 L97.9304,0.3248 L97.9304,7.1278 C97.9304,9.1968 96.4834,10.0348 95.0904,10.0348 C93.6974,10.0348 92.2634,9.1828 92.2634,7.1278 L92.2634,6.6538 Z" id="Fill-10" fill="#FFFFFF" mask="url(#mask-2)"></path>
          <path d="M105.279,7.1274 L101.682,7.1274 L100.736,9.8724 L99.356,9.8724 L102.792,0.3244 L104.198,0.3244 L107.632,9.8724 L106.239,9.8724 L105.279,7.1274 Z M103.481,1.6364 C103.481,1.6364 103.265,2.5014 103.102,2.9894 L102.034,6.0184 L104.928,6.0184 L103.873,2.9894 C103.711,2.5014 103.508,1.6364 103.508,1.6364 L103.481,1.6364 Z" id="Fill-11" fill="#FFFFFF" mask="url(#mask-2)"></path>
          <path d="M109.6079,7.7627 C109.6079,7.7627 110.6219,8.7907 112.0419,8.7907 C112.9349,8.7907 113.6919,8.2907 113.6919,7.3837 C113.6919,5.3147 109.0659,5.7617 109.0659,2.8267 C109.0659,1.3387 110.3509,0.1627 112.1499,0.1627 C113.9209,0.1627 114.8549,1.1227 114.8549,1.1227 L114.2459,2.2317 C114.2459,2.2317 113.3669,1.4067 112.1499,1.4067 C111.1349,1.4067 110.4179,2.0417 110.4179,2.7997 C110.4179,4.7737 115.0449,4.2467 115.0449,7.3437 C115.0449,8.8177 113.9079,10.0357 112.0149,10.0357 C109.9859,10.0357 108.8499,8.7767 108.8499,8.7767 L109.6079,7.7627 Z" id="Fill-12" fill="#FFFFFF" mask="url(#mask-2)"></path>
          <path d="M59.9384,23.1101 L56.3414,23.1101 L55.3954,25.8551 L54.0154,25.8551 L57.4514,16.3071 L58.8574,16.3071 L62.2914,25.8551 L60.8984,25.8551 L59.9384,23.1101 Z M58.1404,17.6191 C58.1404,17.6191 57.9244,18.4841 57.7614,18.9721 L56.6934,22.0011 L59.5874,22.0011 L58.5324,18.9721 C58.3704,18.4841 58.1674,17.6191 58.1674,17.6191 L58.1404,17.6191 Z" id="Fill-13" fill="#FFFFFF" mask="url(#mask-2)"></path>
          <polygon id="Fill-14" fill="#FFFFFF" mask="url(#mask-2)" points="64.0359 16.3073 65.3749 16.3073 65.3749 24.6923 69.6489 24.6923 69.6489 25.8553 64.0359 25.8553"></polygon>
          <polygon id="Fill-15" fill="#FFFFFF" mask="url(#mask-2)" points="72.4841 17.4703 69.2111 17.4703 69.2111 16.3073 77.0961 16.3073 77.0961 17.4703 73.8231 17.4703 73.8231 25.8553 72.4841 25.8553"></polygon>
          <polygon id="Fill-16" fill="#FFFFFF" mask="url(#mask-2)" points="78.8186 16.3073 84.3636 16.3073 84.3636 17.4703 80.1576 17.4703 80.1576 20.4593 83.5796 20.4593 83.5796 21.6223 80.1576 21.6223 80.1576 24.6923 84.5936 24.6923 84.5936 25.8553 78.8186 25.8553"></polygon>
          <path d="M86.6553,16.3073 L89.5773,16.3073 C90.5773,16.3073 90.9963,16.3883 91.3613,16.5243 C92.3353,16.8883 92.9703,17.8493 92.9703,19.1063 C92.9703,20.3243 92.2943,21.3523 91.2543,21.6903 L91.2543,21.7173 C91.2543,21.7173 91.3613,21.8383 91.5383,22.1493 L93.5663,25.8553 L92.0513,25.8553 L90.0363,22.0553 L87.9943,22.0553 L87.9943,25.8553 L86.6553,25.8553 L86.6553,16.3073 Z M89.9153,20.8923 C90.9553,20.8923 91.6053,20.2293 91.6053,19.1613 C91.6053,18.4573 91.3343,17.9573 90.8473,17.6863 C90.5913,17.5523 90.2793,17.4703 89.5363,17.4703 L87.9943,17.4703 L87.9943,20.8923 L89.9153,20.8923 Z" id="Fill-17" fill="#FFFFFF" mask="url(#mask-2)"></path>
          <path d="M95.5973,16.3073 L96.9233,16.3073 L101.1693,22.5153 C101.5203,23.0283 101.9663,23.8943 101.9663,23.8943 L101.9943,23.8943 C101.9943,23.8943 101.8993,23.0423 101.8993,22.5153 L101.8993,16.3073 L103.2383,16.3073 L103.2383,25.8553 L101.9273,25.8553 L97.6663,19.6613 C97.3153,19.1333 96.8683,18.2683 96.8683,18.2683 L96.8423,18.2683 C96.8423,18.2683 96.9363,19.1203 96.9363,19.6613 L96.9363,25.8553 L95.5973,25.8553 L95.5973,16.3073 Z" id="Fill-18" fill="#FFFFFF" mask="url(#mask-2)"></path>
          <path d="M110.9063,23.1101 L107.3093,23.1101 L106.3633,25.8551 L104.9833,25.8551 L108.4193,16.3071 L109.8253,16.3071 L113.2593,25.8551 L111.8663,25.8551 L110.9063,23.1101 Z M109.1083,17.6191 C109.1083,17.6191 108.8923,18.4841 108.7293,18.9721 L107.6613,22.0011 L110.5553,22.0011 L109.5003,18.9721 C109.3383,18.4841 109.1353,17.6191 109.1353,17.6191 L109.1083,17.6191 Z" id="Fill-19" fill="#FFFFFF" mask="url(#mask-2)"></path>
          <polygon id="Fill-20" fill="#FFFFFF" mask="url(#mask-2)" points="116.1859 17.4703 112.9129 17.4703 112.9129 16.3073 120.7979 16.3073 120.7979 17.4703 117.5249 17.4703 117.5249 25.8553 116.1859 25.8553"></polygon>
          <path d="M121.477,15.252 L124.926,15.252 L124.926,14.306 L121.477,14.306 L121.477,15.252 Z M122.519,25.855 L123.858,25.855 L123.858,16.307 L122.519,16.307 L122.519,25.855 Z" id="Fill-21" fill="#FFFFFF" mask="url(#mask-2)"></path>
          <path d="M125.5679,16.3073 L127.0149,16.3073 L129.3809,23.0563 C129.5569,23.5703 129.7469,24.3673 129.7469,24.3673 L129.7729,24.3673 C129.7729,24.3673 129.9629,23.5703 130.1389,23.0563 L132.5329,16.3073 L133.9529,16.3073 L130.4359,25.8553 L129.0969,25.8553 L125.5679,16.3073 Z" id="Fill-22" fill="#FFFFFF" mask="url(#mask-2)"></path>
          <path d="M139.6468,16.1449 C142.4048,16.1449 144.5418,18.2679 144.5418,21.0139 C144.5418,23.8269 142.4048,26.0179 139.6468,26.0179 C136.8868,26.0179 134.7368,23.8269 134.7368,21.0139 C134.7368,18.2679 136.8868,16.1449 139.6468,16.1449 M139.6468,24.7869 C141.5938,24.7869 143.1628,23.1639 143.1628,21.0139 C143.1628,18.9309 141.5938,17.3629 139.6468,17.3629 C137.6988,17.3629 136.1158,18.9309 136.1158,21.0139 C136.1158,23.1639 137.6988,24.7869 139.6468,24.7869" id="Fill-23" fill="#FFFFFF" mask="url(#mask-2)"></path>
          <polygon id="Fill-24" fill="#FFFFFF" mask="url(#mask-2)" points="150.6412 16.3073 155.9012 16.3073 155.9012 17.4703 151.9802 17.4703 151.9802 20.6083 155.3202 20.6083 155.3202 21.7713 151.9802 21.7713 151.9802 25.8553 150.6412 25.8553"></polygon>
          <polygon id="Fill-25" fill="#FFFFFF" mask="url(#mask-2)" points="157.829 25.855 159.168 25.855 159.168 16.307 157.829 16.307"></polygon>
          <path d="M162.0551,16.3073 L163.3811,16.3073 L167.6271,22.5153 C167.9781,23.0283 168.4241,23.8943 168.4241,23.8943 L168.4521,23.8943 C168.4521,23.8943 168.3571,23.0423 168.3571,22.5153 L168.3571,16.3073 L169.6961,16.3073 L169.6961,25.8553 L168.3851,25.8553 L164.1241,19.6613 C163.7731,19.1333 163.3261,18.2683 163.3261,18.2683 L163.2991,18.2683 C163.2991,18.2683 163.3941,19.1203 163.3941,19.6613 L163.3941,25.8553 L162.0551,25.8553 L162.0551,16.3073 Z" id="Fill-26" fill="#FFFFFF" mask="url(#mask-2)"></path>
          <path d="M177.3642,23.1101 L173.7672,23.1101 L172.8212,25.8551 L171.4412,25.8551 L174.8772,16.3071 L176.2832,16.3071 L179.7172,25.8551 L178.3242,25.8551 L177.3642,23.1101 Z M175.5662,17.6191 C175.5662,17.6191 175.3502,18.4841 175.1872,18.9721 L174.1192,22.0011 L177.0132,22.0011 L175.9582,18.9721 C175.7962,18.4841 175.5932,17.6191 175.5932,17.6191 L175.5662,17.6191 Z" id="Fill-27" fill="#FFFFFF" mask="url(#mask-2)"></path>
          <path d="M181.4617,16.3073 L182.7877,16.3073 L187.0337,22.5153 C187.3847,23.0283 187.8307,23.8943 187.8307,23.8943 L187.8587,23.8943 C187.8587,23.8943 187.7637,23.0423 187.7637,22.5153 L187.7637,16.3073 L189.1027,16.3073 L189.1027,25.8553 L187.7917,25.8553 L183.5307,19.6613 C183.1797,19.1333 182.7327,18.2683 182.7327,18.2683 L182.7057,18.2683 C182.7057,18.2683 182.8007,19.1203 182.8007,19.6613 L182.8007,25.8553 L181.4617,25.8553 L181.4617,16.3073 Z" id="Fill-28" fill="#FFFFFF" mask="url(#mask-2)"></path>
          <path d="M192.0437,23.7454 C192.0437,23.7454 193.0577,24.7734 194.4777,24.7734 C195.3707,24.7734 196.1277,24.2734 196.1277,23.3664 C196.1277,21.2974 191.5017,21.7444 191.5017,18.8094 C191.5017,17.3214 192.7867,16.1444 194.5857,16.1444 C196.3567,16.1444 197.2907,17.1054 197.2907,17.1054 L196.6817,18.2144 C196.6817,18.2144 195.8027,17.3894 194.5857,17.3894 C193.5707,17.3894 192.8537,18.0244 192.8537,18.7824 C192.8537,20.7564 197.4807,20.2294 197.4807,23.3264 C197.4807,24.8004 196.3437,26.0174 194.4507,26.0174 C192.4217,26.0174 191.2857,24.7594 191.2857,24.7594 L192.0437,23.7454 Z M192.5717,13.9274 L193.7197,13.9274 L194.4237,15.0224 L194.4507,15.0224 L195.1677,13.9274 L196.3167,13.9274 L195.1267,15.6444 L193.7607,15.6444 L192.5717,13.9274 Z" id="Fill-29" fill="#FFFFFF" mask="url(#mask-2)"></path>
          <path d="M199.5807,16.3073 L200.9197,16.3073 L200.9197,22.4743 C200.9197,23.9343 201.8667,24.7873 203.3267,24.7873 C204.8017,24.7873 205.7617,23.9343 205.7617,22.4473 L205.7617,16.3073 L207.1007,16.3073 L207.1007,22.4743 C207.1007,24.5983 205.5727,26.0173 203.3397,26.0173 C201.1087,26.0173 199.5807,24.5983 199.5807,22.4743 L199.5807,16.3073 Z" id="Fill-30" fill="#FFFFFF" mask="url(#mask-2)"></path>
          <path d="M55.2054,32.29 L58.6954,32.29 C60.4394,32.29 61.6964,33.467 61.6964,35.279 C61.6964,37.091 60.4394,38.308 58.6954,38.308 L56.5444,38.308 L56.5444,41.838 L55.2054,41.838 L55.2054,32.29 Z M58.4784,37.145 C59.6284,37.145 60.3314,36.428 60.3314,35.279 C60.3314,34.129 59.6284,33.453 58.4914,33.453 L56.5444,33.453 L56.5444,37.145 L58.4784,37.145 Z" id="Fill-31" fill="#FFFFFF" mask="url(#mask-2)"></path>
          <path d="M67.9429,39.0927 L64.3459,39.0927 L63.3999,41.8377 L62.0199,41.8377 L65.4559,32.2897 L66.8619,32.2897 L70.2959,41.8377 L68.9029,41.8377 L67.9429,39.0927 Z M66.1449,33.6017 C66.1449,33.6017 65.9289,34.4667 65.7659,34.9547 L64.6979,37.9837 L67.5919,37.9837 L66.5369,34.9547 C66.3749,34.4667 66.1719,33.6017 66.1719,33.6017 L66.1449,33.6017 Z" id="Fill-32" fill="#FFFFFF" mask="url(#mask-2)"></path>
          <polygon id="Fill-33" fill="#FFFFFF" mask="url(#mask-2)" points="72.0405 32.29 73.3795 32.29 73.3795 36.307 74.7985 36.307 77.2065 32.29 78.6805 32.29 75.9075 36.821 75.9075 36.847 78.8575 41.838 77.3415 41.838 74.7985 37.456 73.3795 37.456 73.3795 41.838 72.0405 41.838"></polygon>
          <path d="M86.0199,39.0927 L82.4229,39.0927 L81.4769,41.8377 L80.0969,41.8377 L83.5329,32.2897 L84.9389,32.2897 L88.3729,41.8377 L86.9799,41.8377 L86.0199,39.0927 Z M84.2219,33.6017 C84.2219,33.6017 84.0059,34.4667 83.8429,34.9547 L82.7749,37.9837 L85.6689,37.9837 L84.6139,34.9547 C84.4519,34.4667 84.2489,33.6017 84.2489,33.6017 L84.2219,33.6017 Z" id="Fill-34" fill="#FFFFFF" mask="url(#mask-2)"></path>
          <polygon id="Fill-35" fill="#FFFFFF" mask="url(#mask-2)" points="90.1175 32.29 91.4565 32.29 91.4565 40.675 95.7305 40.675 95.7305 41.838 90.1175 41.838"></polygon>
          <path d="M97.5346,32.29 L101.0246,32.29 C102.7686,32.29 104.0256,33.467 104.0256,35.279 C104.0256,37.091 102.7686,38.308 101.0246,38.308 L98.8736,38.308 L98.8736,41.838 L97.5346,41.838 L97.5346,32.29 Z M100.8076,37.145 C101.9576,37.145 102.6606,36.428 102.6606,35.279 C102.6606,34.129 101.9576,33.453 100.8206,33.453 L98.8736,33.453 L98.8736,37.145 L100.8076,37.145 Z" id="Fill-36" fill="#FFFFFF" mask="url(#mask-2)"></path>
          <path d="M110.4471,32.1276 C113.2051,32.1276 115.3421,34.2506 115.3421,36.9966 C115.3421,39.8096 113.2051,41.9996 110.4471,41.9996 C107.6871,41.9996 105.5381,39.8096 105.5381,36.9966 C105.5381,34.2506 107.6871,32.1276 110.4471,32.1276 M110.4471,40.7696 C112.3941,40.7696 113.9631,39.1466 113.9631,36.9966 C113.9631,34.9136 112.3941,33.3456 110.4471,33.3456 C108.4991,33.3456 106.9161,34.9136 106.9161,36.9966 C106.9161,39.1466 108.4991,40.7696 110.4471,40.7696" id="Fill-37" fill="#FFFFFF" mask="url(#mask-2)"></path>
          <path d="M116.8057,38.6192 L118.1317,38.6192 L118.1317,39.0252 C118.1317,40.3222 118.8887,40.7702 119.6457,40.7702 C120.3897,40.7702 121.1337,40.3372 121.1337,39.0792 L121.1337,33.4532 L118.7267,33.4532 L118.7267,32.2902 L122.4727,32.2902 L122.4727,39.0922 C122.4727,41.1622 121.0257,42.0002 119.6327,42.0002 C118.2397,42.0002 116.8057,41.1482 116.8057,39.0922 L116.8057,38.6192 Z" id="Fill-38" fill="#FFFFFF" mask="url(#mask-2)"></path>
          <path d="M125.2166,32.29 L126.5556,32.29 L126.5556,38.457 C126.5556,39.917 127.5026,40.77 128.9626,40.77 C130.4376,40.77 131.3976,39.917 131.3976,38.43 L131.3976,32.29 L132.7366,32.29 L132.7366,38.457 C132.7366,40.58 131.2086,42 128.9756,42 C126.7446,42 125.2166,40.58 125.2166,38.457 L125.2166,32.29 Z" id="Fill-39" fill="#FFFFFF" mask="url(#mask-2)"></path>
          <path d="M135.9281,32.29 L137.3341,32.29 L139.5261,37.456 C139.7421,37.984 139.9991,38.741 139.9991,38.741 L140.0251,38.741 C140.0251,38.741 140.2821,37.984 140.4991,37.456 L142.6891,32.29 L144.0971,32.29 L144.8681,41.838 L143.5421,41.838 L143.0681,35.82 C143.0281,35.239 143.0551,34.413 143.0551,34.413 L143.0281,34.413 C143.0281,34.413 142.7451,35.292 142.5141,35.82 L140.6071,40.12 L139.4171,40.12 L137.5241,35.82 C137.3081,35.306 137.0091,34.386 137.0091,34.386 L136.9831,34.386 C136.9831,34.386 136.9961,35.239 136.9551,35.82 L136.4961,41.838 L135.1571,41.838 L135.9281,32.29 Z" id="Fill-40" fill="#FFFFFF" mask="url(#mask-2)"></path>
          <path d="M147.2941,32.29 L148.6331,32.29 L148.6331,38.457 C148.6331,39.917 149.5801,40.77 151.0401,40.77 C152.5151,40.77 153.4751,39.917 153.4751,38.43 L153.4751,32.29 L154.8141,32.29 L154.8141,38.457 C154.8141,40.58 153.2861,42 151.0531,42 C148.8221,42 147.2941,40.58 147.2941,38.457 L147.2941,32.29 Z" id="Fill-41" fill="#FFFFFF" mask="url(#mask-2)"></path>
          <path d="M166.16,39.0927 L162.563,39.0927 L161.617,41.8377 L160.237,41.8377 L163.673,32.2897 L165.079,32.2897 L168.513,41.8377 L167.12,41.8377 L166.16,39.0927 Z M164.362,33.6017 C164.362,33.6017 164.146,34.4667 163.983,34.9547 L162.915,37.9837 L165.809,37.9837 L164.754,34.9547 C164.592,34.4667 164.389,33.6017 164.389,33.6017 L164.362,33.6017 Z" id="Fill-42" fill="#FFFFFF" mask="url(#mask-2)"></path>
          <path d="M170.4901,39.7281 C170.4901,39.7281 171.5041,40.7571 172.9241,40.7571 C173.8171,40.7571 174.5731,40.2561 174.5731,39.3491 C174.5731,37.2801 169.9481,37.7271 169.9481,34.7921 C169.9481,33.3041 171.2331,32.1271 173.0321,32.1271 C174.8031,32.1271 175.7371,33.0881 175.7371,33.0881 L175.1281,34.1971 C175.1281,34.1971 174.2491,33.3721 173.0321,33.3721 C172.0171,33.3721 171.3001,34.0071 171.3001,34.7651 C171.3001,36.7391 175.9271,36.2121 175.9271,39.3081 C175.9271,40.7831 174.7901,42.0001 172.8971,42.0001 C170.8681,42.0001 169.7321,40.7421 169.7321,40.7421 L170.4901,39.7281 Z" id="Fill-43" fill="#FFFFFF" mask="url(#mask-2)"></path>
          <path d="M182.3812,32.1276 C185.1392,32.1276 187.2762,34.2506 187.2762,36.9966 C187.2762,39.8096 185.1392,41.9996 182.3812,41.9996 C179.6212,41.9996 177.4722,39.8096 177.4722,36.9966 C177.4722,34.2506 179.6212,32.1276 182.3812,32.1276 M182.3812,40.7696 C184.3282,40.7696 185.8972,39.1466 185.8972,36.9966 C185.8972,34.9136 184.3282,33.3456 182.3812,33.3456 C180.4332,33.3456 178.8502,34.9136 178.8502,36.9966 C178.8502,39.1466 180.4332,40.7696 182.3812,40.7696" id="Fill-44" fill="#FFFFFF" mask="url(#mask-2)"></path>
          <path d="M193.8251,32.1276 C196.1241,32.1276 197.3021,33.3846 197.3021,33.3846 L196.6391,34.3866 C196.6391,34.3866 195.5301,33.3456 193.8801,33.3456 C191.7431,33.3456 190.3501,34.9676 190.3501,36.9966 C190.3501,39.0386 191.7701,40.7696 193.8931,40.7696 C195.6911,40.7696 196.8411,39.5256 196.8411,39.5256 L197.5581,40.4856 C197.5581,40.4856 196.2471,41.9996 193.8521,41.9996 C190.9851,41.9996 188.9711,39.8096 188.9711,37.0096 C188.9711,34.2376 191.0531,32.1276 193.8251,32.1276" id="Fill-45" fill="#FFFFFF" mask="url(#mask-2)"></path>
          <polygon id="Fill-46" fill="#FFFFFF" mask="url(#mask-2)" points="199.545 41.838 200.884 41.838 200.884 32.29 199.545 32.29"></polygon>
          <path d="M208.5299,39.0927 L204.9329,39.0927 L203.9869,41.8377 L202.6069,41.8377 L206.0429,32.2897 L207.4489,32.2897 L210.8829,41.8377 L209.4899,41.8377 L208.5299,39.0927 Z M205.0279,31.2347 L208.4759,31.2347 L208.4759,30.2887 L205.0279,30.2887 L205.0279,31.2347 Z M206.7319,33.6017 C206.7319,33.6017 206.5159,34.4667 206.3529,34.9547 L205.2849,37.9837 L208.1789,37.9837 L207.1239,34.9547 C206.9619,34.4667 206.7589,33.6017 206.7589,33.6017 L206.7319,33.6017 Z" id="Fill-47" fill="#FFFFFF" mask="url(#mask-2)"></path>
          <path d="M216.592,32.1276 C218.891,32.1276 220.069,33.3846 220.069,33.3846 L219.406,34.3866 C219.406,34.3866 218.297,33.3456 216.647,33.3456 C214.51,33.3456 213.117,34.9676 213.117,36.9966 C213.117,39.0386 214.537,40.7696 216.66,40.7696 C218.458,40.7696 219.608,39.5256 219.608,39.5256 L220.325,40.4856 C220.325,40.4856 219.013,41.9996 216.619,41.9996 C213.752,41.9996 211.737,39.8096 211.737,37.0096 C211.737,34.2376 213.82,32.1276 216.592,32.1276" id="Fill-48" fill="#FFFFFF" mask="url(#mask-2)"></path>
          <polygon id="Fill-49" fill="#FFFFFF" mask="url(#mask-2)" points="222.311 41.838 223.65 41.838 223.65 32.29 222.311 32.29"></polygon>
          <path d="M225.5244,38.6192 L226.8504,38.6192 L226.8504,39.0252 C226.8504,40.3222 227.6074,40.7702 228.3644,40.7702 C229.1084,40.7702 229.8524,40.3372 229.8524,39.0792 L229.8524,33.4532 L227.4454,33.4532 L227.4454,32.2902 L231.1914,32.2902 L231.1914,39.0922 C231.1914,41.1622 229.7444,42.0002 228.3514,42.0002 C226.9584,42.0002 225.5244,41.1482 225.5244,39.0922 L225.5244,38.6192 Z" id="Fill-50" fill="#FFFFFF" mask="url(#mask-2)"></path>
          <path d="M238.54,39.0927 L234.943,39.0927 L233.997,41.8377 L232.617,41.8377 L236.053,32.2897 L237.459,32.2897 L240.893,41.8377 L239.5,41.8377 L238.54,39.0927 Z M236.742,33.6017 C236.742,33.6017 236.526,34.4667 236.363,34.9547 L235.295,37.9837 L238.189,37.9837 L237.134,34.9547 C236.972,34.4667 236.769,33.6017 236.769,33.6017 L236.742,33.6017 Z" id="Fill-51" fill="#FFFFFF" mask="url(#mask-2)"></path>
          <path d="M10.6041,5.5966 C10.6041,8.5246 8.2301,10.8986 5.3021,10.8986 C2.3741,10.8986 0.0001,8.5246 0.0001,5.5966 C0.0001,2.6686 2.3741,0.2946 5.3021,0.2946 C8.2301,0.2946 10.6041,2.6686 10.6041,5.5966" id="Fill-52" fill="#FFFFFF" mask="url(#mask-2)"></path>
          <path d="M26.0698,5.5966 C26.0698,8.5246 23.6958,10.8986 20.7678,10.8986 C17.8398,10.8986 15.4658,8.5246 15.4658,5.5966 C15.4658,2.6686 17.8398,0.2946 20.7678,0.2946 C23.6958,0.2946 26.0698,2.6686 26.0698,5.5966" id="Fill-53" fill="#00415F" mask="url(#mask-2)"></path>
          <path d="M41.5356,5.5966 C41.5356,8.5246 39.1616,10.8986 36.2336,10.8986 C33.3056,10.8986 30.9316,8.5246 30.9316,5.5966 C30.9316,2.6686 33.3056,0.2946 36.2336,0.2946 C39.1616,0.2946 41.5356,2.6686 41.5356,5.5966" id="Fill-54" fill="#FFFFFF" mask="url(#mask-2)"></path>
          <path d="M5.3021,26.3644 C2.3741,26.3644 0.0001,23.9904 0.0001,21.0624 C0.0001,18.1344 2.3741,15.7604 5.3021,15.7604 C8.2301,15.7604 10.6041,18.1344 10.6041,21.0624 C10.6041,23.9904 8.2301,26.3644 5.3021,26.3644" id="Fill-55" fill="#FFFFFF" mask="url(#mask-2)"></path>
          <path d="M5.3021,41.8301 C2.3741,41.8301 0.0001,39.4561 0.0001,36.5281 C0.0001,33.6001 2.3741,31.2261 5.3021,31.2261 C8.2301,31.2261 10.6041,33.6001 10.6041,36.5281 C10.6041,39.4561 8.2301,41.8301 5.3021,41.8301" id="Fill-56" fill="#FFFFFF" mask="url(#mask-2)"></path>
          <path d="M20.7678,26.3644 C17.8398,26.3644 15.4658,23.9904 15.4658,21.0624 C15.4658,18.1344 17.8398,15.7604 20.7678,15.7604 C23.6958,15.7604 26.0698,18.1344 26.0698,21.0624 C26.0698,23.9904 23.6958,26.3644 20.7678,26.3644" id="Fill-57" fill="#FFFFFF" mask="url(#mask-2)"></path>
          <path d="M20.7678,41.8301 C17.8398,41.8301 15.4658,39.4561 15.4658,36.5281 C15.4658,33.6001 17.8398,31.2261 20.7678,31.2261 C23.6958,31.2261 26.0698,33.6001 26.0698,36.5281 C26.0698,39.4561 23.6958,41.8301 20.7678,41.8301" id="Fill-58" fill="#00415F" mask="url(#mask-2)"></path>
          <path d="M36.2335,26.3644 C33.3055,26.3644 30.9315,23.9904 30.9315,21.0624 C30.9315,18.1344 33.3055,15.7604 36.2335,15.7604 C39.1615,15.7604 41.5355,18.1344 41.5355,21.0624 C41.5355,23.9904 39.1615,26.3644 36.2335,26.3644" id="Fill-59" fill="#00415F" mask="url(#mask-2)"></path>
          <path d="M36.2335,41.8301 C33.3055,41.8301 30.9315,39.4561 30.9315,36.5281 C30.9315,33.6001 33.3055,31.2261 36.2335,31.2261 C39.1615,31.2261 41.5355,33.6001 41.5355,36.5281 C41.5355,39.4561 39.1615,41.8301 36.2335,41.8301" id="Fill-60" fill="#FFFFFF" mask="url(#mask-2)"></path>
        </g>
      </g>
    </g>
  </g>
</svg>