<svg  width="603px" height="348px" viewBox="0 0 603 348" xmlns="http://www.w3.org/2000/svg">
    <g id="Page-1" stroke="none" stroke-width="1" fill="none" fill-rule="evenodd" opacity="0.05">
        <g id="Pattern" fill="#FFFFFF">
            <path d="M368.763599,312.697076 L373.289599,294.597076 C371.838599,294.235076 370.327599,294.021076 368.763599,294.021076 C358.448599,294.021076 350.086599,302.382076 350.086599,312.697076 C350.086599,323.012076 358.448599,331.374076 368.763599,331.374076 C379.078599,331.374076 387.439599,323.012076 387.439599,312.697076 C387.439599,311.133076 387.227599,309.623076 386.865599,308.172076 L368.763599,312.697076 Z M362.409599,137.094076 L370.665599,112.153076 C371.130599,110.751076 370.457599,110.123076 368.911599,109.611076 L334.464599,98.2080756 L354.536599,108.622076 C356.770599,109.749076 357.765599,112.062076 357.034599,114.271076 L356.724599,115.200076 L363.528599,117.453076 C364.162599,117.663076 364.521599,118.297076 364.331599,118.871076 C364.141599,119.445076 363.474599,119.739076 362.840599,119.530076 L356.034599,117.277076 L354.826599,120.909076 L358.194599,122.023076 C358.828599,122.233076 359.188599,122.868076 358.998599,123.441076 C358.808599,124.015076 358.141599,124.310076 357.506599,124.100076 L354.137599,122.984076 L349.954599,135.572076 L359.294599,138.664076 C360.585599,139.091076 361.981599,138.387076 362.409599,137.094076 Z M438.405599,45.4520756 L444.152599,48.4790756 L445.498599,45.9250756 L439.751599,42.8970756 L438.405599,45.4520756 Z M377.958599,289.927076 L373.432599,308.028076 L391.533599,303.503076 C389.870599,296.831076 384.629599,291.591076 377.958599,289.927076 Z M229.622599,196.938076 L223.335599,196.938076 C221.773599,196.938076 220.506599,198.205076 220.506599,199.767076 L220.506599,228.688076 C220.506599,230.250076 221.773599,231.517076 223.335599,231.517076 L229.622599,231.517076 C231.186599,231.517076 232.452599,230.250076 232.452599,228.688076 L232.452599,199.767076 C232.452599,198.205076 231.186599,196.938076 229.622599,196.938076 Z M232.187599,48.1870756 L236.088599,47.1110756 L237.163599,51.0120756 L233.263599,52.0880756 L232.187599,48.1870756 Z M230.403599,41.7210756 L234.304599,40.6450756 L235.380599,44.5460756 L231.479599,45.6220756 L230.403599,41.7210756 Z M226.850599,53.8560756 L225.774599,49.9560756 L229.675599,48.8800756 L230.751599,52.7810756 L226.850599,53.8560756 Z M223.991599,43.4900756 L227.892599,42.4140756 L228.968599,46.3150756 L225.067599,47.3910756 L223.991599,43.4900756 Z M220.408599,55.5210756 L219.332599,51.6210756 L223.233599,50.5450756 L224.308599,54.4460756 L220.408599,55.5210756 Z M217.548599,45.1550756 L221.449599,44.0790756 L222.525599,47.9790756 L218.624599,49.0550756 L217.548599,45.1550756 Z M213.995599,57.2900756 L212.919599,53.3890756 L216.820599,52.3130756 L217.896599,56.2140756 L213.995599,57.2900756 Z M211.136599,46.9230756 L215.037599,45.8470756 L216.113599,49.7480756 L212.212599,50.8240756 L211.136599,46.9230756 Z M209.352599,40.4570756 L213.253599,39.3810756 L214.329599,43.2820756 L210.428599,44.3580756 L209.352599,40.4570756 Z M220.742599,41.5130756 L216.841599,42.5890756 L215.765599,38.6880756 L219.666599,37.6130756 L220.742599,41.5130756 Z M227.184599,39.8490756 L223.284599,40.9250756 L222.208599,37.0240756 L226.109599,35.9480756 L227.184599,39.8490756 Z M206.017599,28.8010756 L229.373599,22.3600756 L231.515599,30.1240756 L208.159599,36.5660756 L206.017599,28.8010756 Z M233.597599,38.0800756 L229.696599,39.1560756 L228.620599,35.2550756 L232.521599,34.1790756 L233.597599,38.0800756 Z M240.020599,48.7050756 L232.616599,21.8600756 C231.882599,19.2000756 228.486599,17.2720756 225.826599,18.0050756 L206.834599,23.2440756 C204.170599,23.9780756 202.243599,27.3740756 202.977599,30.0340756 L210.381599,56.8800756 C211.115599,59.5410756 214.510599,61.4680756 217.174599,60.7340756 L236.166599,55.4950756 C238.826599,54.7620756 240.754599,51.3660756 240.020599,48.7050756 Z M245.240599,209.197076 L238.951599,209.197076 C237.390599,209.197076 236.123599,210.464076 236.123599,212.027076 L236.123599,228.688076 C236.123599,230.250076 237.390599,231.517076 238.951599,231.517076 L245.240599,231.517076 C246.802599,231.517076 248.069599,230.250076 248.069599,228.688076 L248.069599,212.027076 C248.069599,210.464076 246.802599,209.197076 245.240599,209.197076 Z M440.582599,41.3200756 L453.353599,48.0480756 L454.699599,45.4930756 L441.928599,38.7650756 L440.582599,41.3200756 Z M346.258599,124.366076 C345.536599,126.545076 343.958599,127.984076 342.732599,127.578076 C341.506599,127.173076 341.098599,125.076076 341.819599,122.896076 C342.541599,120.717076 344.119599,119.278076 345.345599,119.684076 C346.572599,120.090076 346.979599,122.186076 346.258599,124.366076 Z M352.471599,110.960076 L325.631599,96.3150756 C324.338599,95.8870756 322.940599,96.5880756 322.512599,97.8820756 L314.446599,122.249076 C314.017599,123.544076 314.720599,124.940076 316.014599,125.368076 L342.853599,140.012076 C344.147599,140.441076 345.542599,139.740076 345.970599,138.446076 L354.001599,114.301076 C354.429599,113.007076 353.917599,111.787076 352.471599,110.960076 Z M551.132599,312.086076 L548.382599,312.592076 C547.118599,312.824076 546.282599,314.037076 546.514599,315.300076 L550.124599,334.948076 C550.356599,336.211076 551.570599,337.049076 552.833599,336.816076 L555.584599,336.311076 C556.849599,336.079076 557.685599,334.865076 557.452599,333.602076 L553.842599,313.954076 C553.610599,312.690076 552.397599,311.853076 551.132599,312.086076 Z M563.626599,293.378076 L535.803599,312.417076 L596.400599,301.282076 L563.626599,293.378076 Z M567.917599,309.002076 L565.167599,309.507076 C563.903599,309.739076 563.067599,310.953076 563.299599,312.216076 L566.910599,331.864076 C567.142599,333.127076 568.354599,333.964076 569.618599,333.732076 L572.369599,333.227076 C573.634599,332.994076 574.470599,331.780076 574.238599,330.517076 L570.627599,310.869076 C570.395599,309.606076 569.183599,308.769076 567.917599,309.002076 Z M468.364599,52.4160756 L461.348599,48.7200756 L458.923599,53.3230756 L465.939599,57.0200756 L468.364599,52.4160756 Z M214.007599,216.743076 L207.720599,216.743076 C206.158599,216.743076 204.890599,218.009076 204.890599,219.571076 L204.890599,228.688076 C204.890599,230.250076 206.158599,231.517076 207.720599,231.517076 L214.007599,231.517076 C215.569599,231.517076 216.835599,230.250076 216.835599,228.688076 L216.835599,219.571076 C216.835599,218.009076 215.569599,216.743076 214.007599,216.743076 Z M602.509599,334.526076 L602.197599,332.827076 C601.964599,331.563076 600.751599,330.727076 599.488599,330.959076 L543.467599,341.253076 C542.204599,341.486076 541.367599,342.698076 541.600599,343.962076 L541.912599,345.662076 C542.144599,346.926076 543.358599,347.762076 544.621599,347.530076 L600.641599,337.236076 C601.904599,337.003076 602.741599,335.791076 602.509599,334.526076 Z M489.345599,207.502076 L487.888599,207.209076 L481.758599,237.662076 L483.214599,237.955076 C484.686599,238.251076 486.120599,237.299076 486.417599,235.827076 L491.474599,210.705076 C491.771599,209.232076 490.817599,207.799076 489.345599,207.502076 Z M433.931599,47.0860756 L440.272599,35.0500756 L471.692599,51.6040756 L465.351599,63.6400756 C465.147599,64.0230756 464.672599,64.1720756 464.287599,63.9700756 L434.260599,48.1510756 C433.877599,47.9470756 433.729599,47.4700756 433.931599,47.0860756 Z M444.195599,27.6030756 C444.398599,27.2190756 444.876599,27.0720756 445.260599,27.2730756 L475.286599,43.0930756 C475.671599,43.2960756 475.817599,43.7720756 475.616599,44.1580756 L473.991599,47.2410756 L442.571599,30.6870756 L444.195599,27.6030756 Z M468.416599,65.2550756 L478.680599,45.7720756 C479.774599,43.6920756 478.977599,41.1220756 476.901599,40.0280756 L446.874599,24.2080756 C444.797599,23.1140756 442.226599,23.9100756 441.131599,25.9890756 L430.866599,45.4710756 C429.771599,47.5500756 430.569599,50.1200756 432.645599,51.2150756 L462.672599,67.0350756 C464.749599,68.1280756 467.319599,67.3320756 468.416599,65.2550756 Z M451.618599,199.906076 C450.148599,199.611076 448.714599,200.564076 448.418599,202.036076 L443.360599,227.158076 C443.064599,228.630076 444.017599,230.063076 445.487599,230.359076 L446.945599,230.653076 L453.076599,200.200076 L451.618599,199.906076 Z M476.438599,204.904076 L464.528599,202.506076 L465.517599,197.596076 C465.609599,197.137076 466.059599,196.840076 466.516599,196.930076 L476.759599,198.992076 C477.219599,199.086076 477.517599,199.534076 477.426599,199.994076 L476.438599,204.904076 Z M480.103599,205.641076 L481.091599,200.731076 C481.589599,198.247076 479.982599,195.829076 477.497599,195.329076 L467.254599,193.267076 C464.769599,192.768076 462.353599,194.375076 461.853599,196.858076 L460.864599,201.768076 L456.741599,200.938076 L450.610599,231.391076 L478.093599,236.924076 L484.224599,206.471076 L480.103599,205.641076 Z M584.703599,305.917076 L581.953599,306.423076 C580.688599,306.655076 579.853599,307.868076 580.085599,309.131076 L583.695599,328.779076 C583.927599,330.042076 585.140599,330.880076 586.404599,330.647076 L589.155599,330.142076 C590.420599,329.910076 591.255599,328.696076 591.023599,327.433076 L587.413599,307.785076 C587.181599,306.521076 585.968599,305.685076 584.703599,305.917076 Z M28.3615994,28.5760756 C27.4535994,27.4200756 26.6805994,26.8090756 25.7095994,26.4420756 C24.6435994,26.0390756 23.6635994,26.3720756 23.3315994,27.2510756 C23.0775994,27.9230756 23.3065994,28.3940756 24.2745994,29.1030756 L25.6815994,30.1260756 C27.5935994,31.5120756 28.2365994,33.3140756 27.5095994,35.2380756 C26.6045994,37.6300756 24.2015994,38.6230756 21.3275994,37.8560756 L20.7555994,39.3700756 L19.1485994,38.7620756 L19.7215994,37.2490756 C18.5105994,36.6620756 17.3585994,35.7560756 16.5095994,34.7310756 L18.2525994,33.0610756 C19.2245994,34.1560756 20.1165994,34.9630756 21.4245994,35.4570756 C22.9175994,36.0220756 23.9385994,35.7040756 24.3765994,34.5450756 C24.6945994,33.7040756 24.3485994,32.9760756 23.3105994,32.2190756 L22.0185994,31.2830756 C20.8635994,30.4400756 20.2495994,29.6310756 20.0835994,28.6710756 C19.9475994,27.9570756 20.0135994,27.2140756 20.2895994,26.4850756 C21.1015994,24.3360756 23.2405994,23.3730756 25.6985994,23.9810756 L26.2075994,22.6350756 L27.8165994,23.2440756 L27.3005994,24.6090756 C28.5595994,25.2340756 29.6225994,26.1480756 30.3025994,27.1740756 L28.3615994,28.5760756 Z M29.8675994,14.2040756 C18.4715994,9.89407563 5.74059942,15.6390756 1.43059942,27.0350756 C-0.173400585,31.2770756 -0.382400585,35.7050756 0.572599415,39.8130756 L34.8855994,52.7900756 C38.3215994,50.3420756 41.0945994,46.8840756 42.6985994,42.6420756 C47.0085994,31.2460756 41.2635994,18.5130756 29.8675994,14.2040756 Z M37.6125994,229.172076 C34.8325994,237.745076 25.5985994,242.458076 17.0235994,239.678076 C8.45059942,236.897076 3.73759942,227.661076 6.51759942,219.088076 C7.86459942,214.936076 10.7475994,211.556076 14.6365994,209.571076 C16.9715994,208.380076 19.5005994,207.777076 22.0475994,207.777076 C23.7435994,207.777076 25.4475994,208.044076 27.1075994,208.582076 C35.6795994,211.363076 40.3925994,220.599076 37.6125994,229.172076 Z M28.5545994,204.120076 C23.2095994,202.386076 17.5095994,202.839076 12.5045994,205.392076 C7.49959942,207.946076 3.78759942,212.296076 2.05459942,217.641076 C-1.52340058,228.674076 4.54259942,240.562076 15.5765994,244.141076 C17.7125994,244.833076 19.9045994,245.177076 22.0875994,245.177076 C25.3655994,245.177076 28.6215994,244.401076 31.6265994,242.868076 C36.6315994,240.314076 40.3425994,235.964076 42.0755994,230.619076 C45.6535994,219.585076 39.5885994,207.697076 28.5545994,204.120076 Z M140.299599,294.228076 L138.804599,293.819076 C137.773599,293.534076 137.435599,293.213076 137.435599,292.573076 C137.435599,291.736076 138.147599,291.149076 139.160599,291.149076 C140.085599,291.149076 140.922599,291.416076 142.044599,292.092076 L143.218599,290.313076 C142.329599,289.672076 141.153599,289.244076 139.909599,289.120076 L139.909599,287.821076 L138.375599,287.821076 L138.375599,289.103076 C136.133599,289.369076 134.656599,290.846076 134.656599,292.893076 C134.656599,293.587076 134.833599,294.228076 135.173599,294.779076 C135.616599,295.528076 136.383599,296.008076 137.610599,296.346076 L138.981599,296.720076 C140.085599,297.023076 140.602599,297.522076 140.602599,298.322076 C140.602599,299.426076 139.853599,300.013076 138.430599,300.013076 C137.183599,300.013076 136.188599,299.622076 135.031599,299.017076 L134.102599,300.956076 C135.136599,301.543076 136.383599,301.936076 137.577599,302.042076 L137.577599,303.483076 L139.107599,303.483076 L139.107599,302.042076 C141.739599,301.775076 143.432599,300.191076 143.432599,297.912076 C143.432599,296.080076 142.329599,294.779076 140.299599,294.228076 Z M118.583599,115.905076 C117.336599,116.489076 116.797599,117.973076 117.381599,119.221076 C117.964599,120.468076 119.449599,121.007076 120.697599,120.423076 C121.944599,119.839076 122.482599,118.354076 121.899599,117.107076 C121.315599,115.860076 119.830599,115.321076 118.583599,115.905076 Z M146.871599,303.756076 C144.792599,305.833076 141.938599,307.113076 138.769599,307.113076 C135.597599,307.113076 132.744599,305.833076 130.661599,303.756076 C128.587599,301.676076 127.308599,298.822076 127.306599,295.652076 C127.308599,292.482076 128.587599,289.627076 130.661599,287.548076 C132.744599,285.471076 135.597599,284.192076 138.769599,284.191076 C141.938599,284.192076 144.792599,285.471076 146.871599,287.548076 C148.948599,289.627076 150.227599,292.482076 150.227599,295.652076 C150.227599,298.822076 148.948599,301.676076 146.871599,303.756076 Z M131.910599,314.266076 C129.837599,316.336076 126.994599,317.611076 123.836599,317.612076 C120.676599,317.611076 117.832599,316.336076 115.760599,314.266076 C113.690599,312.195076 112.417599,309.351076 112.417599,306.193076 C112.417599,303.033076 113.690599,300.191076 115.760599,298.118076 C117.829599,296.052076 120.670599,294.778076 123.824599,294.774076 C123.808599,295.066076 123.781599,295.356076 123.781599,295.652076 C123.781599,296.578076 123.872599,297.482076 124.033599,298.361076 L123.442599,298.361076 L123.442599,299.643076 C121.200599,299.909076 119.724599,301.387076 119.724599,303.435076 C119.724599,304.128076 119.902599,304.769076 120.241599,305.320076 C120.683599,306.068076 121.449599,306.548076 122.677599,306.886076 L124.048599,307.260076 C125.152599,307.563076 125.668599,308.062076 125.668599,308.862076 C125.668599,309.966076 124.920599,310.554076 123.497599,310.554076 C122.250599,310.554076 121.254599,310.162076 120.097599,309.557076 L119.170599,311.496076 C120.204599,312.084076 121.449599,312.476076 122.644599,312.582076 L122.644599,314.024076 L124.173599,314.024076 L124.173599,312.582076 C126.807599,312.316076 128.499599,310.731076 128.499599,308.453076 C128.499599,306.620076 127.396599,305.320076 125.367599,304.769076 L123.871599,304.360076 C122.839599,304.075076 122.502599,303.754076 122.502599,303.113076 C122.502599,302.277076 123.213599,301.689076 124.226599,301.689076 C124.523599,301.689076 124.808599,301.728076 125.099599,301.787076 C126.884599,305.752076 130.341599,308.801076 134.575599,310.033076 C134.003599,311.638076 133.092599,313.082076 131.910599,314.266076 Z M138.769599,280.665076 C132.008599,280.666076 126.297599,285.141076 124.428599,291.290076 C124.231599,291.280076 124.037599,291.260076 123.836599,291.260076 C115.587599,291.261076 108.903599,297.945076 108.903599,306.193076 C108.903599,314.440076 115.587599,321.124076 123.836599,321.125076 C130.546599,321.124076 136.216599,316.697076 138.098599,310.605076 C138.322599,310.615076 138.541599,310.640076 138.769599,310.640076 C147.044599,310.638076 153.754599,303.930076 153.757599,295.652076 C153.754599,287.374076 147.044599,280.666076 138.769599,280.665076 Z M128.578599,128.134076 L98.5595994,142.176076 C97.1935994,139.563076 94.0405994,138.436076 91.3245994,139.605076 L85.3565994,126.849076 C87.9935994,125.514076 89.1485994,122.376076 88.0225994,119.654076 L118.042599,105.611076 C119.426599,108.249076 122.631599,109.373076 125.367599,108.137076 L131.330599,120.885076 C128.627599,122.194076 127.435599,125.379076 128.578599,128.134076 Z M135.676599,124.174076 L125.631599,102.700076 C124.899599,101.138076 123.041599,100.465076 121.480599,101.195076 L82.5195994,119.421076 C80.9575994,120.153076 80.2845994,122.009076 81.0155994,123.572076 L91.0615994,145.045076 C91.7925994,146.608076 93.6485994,147.281076 95.2115994,146.551076 L134.171599,128.325076 C135.733599,127.594076 136.407599,125.737076 135.676599,124.174076 Z M96.1595994,126.395076 C94.9125994,126.978076 94.3745994,128.463076 94.9575994,129.710076 C95.5415994,130.958076 97.0265994,131.496076 98.2735994,130.913076 C99.5205994,130.330076 100.059599,128.844076 99.4755994,127.597076 C98.8925994,126.350076 97.4065994,125.812076 96.1595994,126.395076 Z M28.9085994,7.31507563 L35.1785994,9.68607563 C36.1135994,10.0390756 36.7475994,9.86707563 37.5185994,9.14507563 L40.5455994,6.04907563 C40.9875994,5.32907563 40.4665994,4.33807563 39.5315994,3.98507563 C39.5315994,3.98507563 35.6185994,3.11507563 34.3135994,2.62207563 C33.0075994,2.12807563 29.3835994,0.147075632 29.3835994,0.147075632 C28.4485994,-0.206924368 27.4785994,0.0660756324 27.2245994,1.09707563 L27.4845994,5.69207563 C27.5565994,6.28907563 27.9735994,6.96107563 28.9085994,7.31507563 Z M110.878599,127.011076 L111.289599,127.891076 L110.357599,128.327076 L109.945599,127.447076 C109.187599,127.723076 108.316599,127.839076 107.520599,127.775076 L107.531599,126.328076 C108.408599,126.367076 109.128599,126.322076 109.888599,125.967076 C110.755599,125.561076 111.043599,124.989076 110.729599,124.316076 C110.500599,123.828076 110.044599,123.671076 109.284599,123.802076 L108.342599,123.965076 C107.497599,124.109076 106.892599,124.035076 106.410599,123.704076 C106.045599,123.465076 105.755599,123.125076 105.557599,122.702076 C104.973599,121.454076 105.452599,120.132076 106.743599,119.330076 L106.377599,118.548076 L107.311599,118.111076 L107.681599,118.904076 C108.477599,118.624076 109.315599,118.550076 110.040599,118.687076 L109.832599,120.107076 C108.956599,120.014076 108.369599,120.091076 107.804599,120.355076 C107.186599,120.645076 106.919599,121.205076 107.158599,121.715076 C107.340599,122.105076 107.639599,122.204076 108.349599,122.083076 L109.377599,121.906076 C110.771599,121.664076 111.815599,122.142076 112.338599,123.259076 C112.988599,124.649076 112.409599,126.096076 110.878599,127.011076 Z M104.805599,115.203076 C101.106599,116.934076 99.8145994,121.971076 101.912599,126.457076 C104.011599,130.943076 108.706599,133.179076 112.405599,131.449076 C116.100599,129.720076 117.396599,124.681076 115.297599,120.195076 C113.199599,115.709076 108.501599,113.474076 104.805599,115.203076 Z M563.983599,129.283076 C565.494599,122.932076 571.868599,119.005076 578.221599,120.516076 C584.575599,122.027076 588.499599,128.403076 586.988599,134.755076 C585.477599,141.107076 579.103599,145.033076 572.749599,143.521076 C566.396599,142.010076 562.472599,135.635076 563.983599,129.283076 Z M551.806599,147.277076 L554.336599,147.879076 L554.105599,148.852076 C553.810599,150.093076 554.576599,151.337076 555.816599,151.632076 L560.000599,152.627076 C561.241599,152.922076 562.485599,152.156076 562.780599,150.916076 L563.011599,149.942076 L578.843599,153.708076 L578.612599,154.681076 C578.317599,155.921076 579.083599,157.166076 580.322599,157.461076 L584.507599,158.456076 C585.748599,158.751076 586.992599,157.985076 587.287599,156.745076 L587.519599,155.771076 L589.758599,156.304076 C590.999599,156.599076 592.243599,155.833076 592.538599,154.593076 L600.875599,119.541076 C601.170599,118.301076 600.404599,117.056076 599.164599,116.761076 L561.211599,107.734076 C559.972599,107.439076 558.727599,108.207076 558.432599,109.447076 L550.096599,144.498076 C549.801599,145.738076 550.567599,146.982076 551.806599,147.277076 Z M28.6115994,215.268076 C28.1595994,215.061076 27.5515994,214.772076 26.8895994,214.557076 C22.3345994,213.080076 17.6775994,214.834076 15.1485994,218.590076 L14.3195994,218.322076 C13.5195994,218.062076 13.1265994,218.332076 12.9035994,219.021076 C12.6795994,219.712076 12.8575994,220.197076 13.6305994,220.447076 L14.0725994,220.590076 C13.8385994,221.124076 13.6055994,221.842076 13.5445994,222.311076 L13.0485994,222.150076 C12.2475994,221.890076 11.8825994,222.168076 11.6585994,222.859076 C11.4355994,223.549076 11.5675994,223.988076 12.3675994,224.248076 L13.2235994,224.525076 C12.9675994,229.171076 15.5705994,233.279076 20.3185994,234.819076 C21.1745994,235.096076 21.9835994,235.237076 22.5435994,235.296076 C23.3335994,235.400076 23.7795994,234.965076 23.8655994,234.230076 L23.9845994,233.110076 C24.1075994,232.356076 23.6905994,231.947076 22.9375994,231.824076 C22.5325994,231.754076 22.0185994,231.648076 21.4665994,231.469076 C18.8985994,230.637076 17.2935994,228.438076 17.1705994,225.805076 L21.8355994,227.318076 C22.6365994,227.578076 23.0295994,227.400076 23.4365994,226.708076 C23.7985994,226.063076 23.5925994,225.569076 22.7095994,225.283076 L17.2165994,223.501076 C17.3125994,222.923076 17.5185994,222.288076 17.7715994,221.790076 L23.8165994,223.750076 C24.6175994,224.010076 25.0465994,223.814076 25.4265994,223.113076 C25.7975994,222.440076 25.6105994,221.983076 24.6995994,221.687076 L18.9575994,219.826076 C20.5655994,217.784076 23.0825994,216.984076 25.7325994,217.843076 C26.2015994,217.995076 26.6805994,218.212076 26.9935994,218.374076 C27.5465994,218.645076 28.0225994,218.494076 28.4395994,217.867076 L29.0465994,216.935076 C29.4815994,216.252076 29.3485994,215.629076 28.6115994,215.268076 Z M570.451599,134.054076 L567.347599,135.966076 C566.953599,136.208076 566.830599,136.725076 567.073599,137.119076 C567.316599,137.514076 567.832599,137.636076 568.226599,137.394076 L571.327599,135.484076 C571.885599,136.143076 572.600599,136.673076 573.436599,137.013076 L572.594599,140.552076 C572.487599,141.002076 572.765599,141.455076 573.215599,141.562076 C573.666599,141.669076 574.118599,141.390076 574.225599,140.940076 L575.067599,137.401076 C575.965599,137.474076 576.842599,137.323076 577.637599,136.986076 L579.545599,140.086076 C579.788599,140.480076 580.305599,140.603076 580.699599,140.360076 C581.093599,140.117076 581.216599,139.601076 580.973599,139.207076 L579.063599,136.103076 C579.717599,135.545076 580.242599,134.829076 580.578599,133.995076 L584.132599,134.841076 C584.582599,134.948076 585.034599,134.670076 585.142599,134.219076 C585.249599,133.769076 584.971599,133.317076 584.520599,133.209076 L580.960599,132.362076 C581.029599,131.470076 580.878599,130.599076 580.543599,129.810076 L583.665599,127.888076 C584.060599,127.645076 584.182599,127.129076 583.940599,126.735076 C583.697599,126.341076 583.181599,126.218076 582.786599,126.460076 L579.661599,128.384076 C579.106599,127.735076 578.396599,127.213076 577.570599,126.877076 L578.420599,123.302076 C578.528599,122.851076 578.249599,122.399076 577.799599,122.292076 C577.348599,122.185076 576.896599,122.463076 576.789599,122.914076 L575.939599,126.489076 C575.049599,126.417076 574.181599,126.564076 573.392599,126.894076 L571.468599,123.768076 C571.225599,123.373076 570.709599,123.250076 570.315599,123.493076 C569.920599,123.736076 569.797599,124.252076 570.040599,124.647076 L571.963599,127.770076 C571.309599,128.323076 570.782599,129.033076 570.442599,129.860076 L566.882599,129.013076 C566.431599,128.906076 565.979599,129.184076 565.872599,129.635076 C565.765599,130.085076 566.043599,130.538076 566.494599,130.645076 L570.049599,131.490076 C569.973599,132.385076 570.119599,133.260076 570.451599,134.054076 Z M27.4485994,11.7470756 L33.3105994,13.9630756 C34.1345994,14.2750756 34.9875994,14.0360756 35.2175994,13.4290756 L35.5285994,12.6060756 C35.7575994,11.9990756 35.2765994,11.2550756 34.4525994,10.9430756 L28.5905994,8.72607563 C27.7645994,8.41407563 26.9105994,8.65407563 26.6815994,9.26007563 L26.3705994,10.0840756 C26.1405994,10.6900756 26.6225994,11.4350756 27.4485994,11.7470756 Z"></path>
        </g>
    </g>
</svg>