<?xml version="1.0" standalone="no"?>
<!DOCTYPE svg PUBLIC "-//W3C//DTD SVG 20010904//EN"
 "http://www.w3.org/TR/2001/REC-SVG-20010904/DTD/svg10.dtd">
<svg version="1.0" xmlns="http://www.w3.org/2000/svg"
 width="700.000000pt" height="700.000000pt" viewBox="0 0 700.000000 700.000000"
 preserveAspectRatio="xMidYMid meet">
<metadata>
Created by potrace 1.11, written by Peter Selinger 2001-2013
</metadata>
<g transform="translate(0.000000,700.000000) scale(0.100000,-0.100000)"
fill="#000000" stroke="none">
<path d="M3149 6996 c-2 -2 -26 -6 -54 -10 -137 -17 -169 -22 -290 -46 -684
-132 -1344 -499 -1845 -1025 -314 -329 -582 -757 -735 -1175 -15 -41 -31 -84
-35 -95 -27 -65 -111 -372 -123 -450 -3 -16 -12 -70 -20 -120 -34 -195 -41
-305 -41 -565 0 -189 7 -348 18 -410 3 -14 7 -47 11 -75 32 -271 146 -667 269
-940 139 -307 337 -616 553 -866 167 -193 427 -427 636 -571 62 -43 117 -82
124 -88 7 -5 14 -10 16 -10 2 0 42 -23 88 -51 367 -222 898 -408 1298 -454 30
-4 62 -8 71 -10 132 -25 684 -25 815 0 11 3 43 7 70 10 44 5 99 13 185 29 413
73 901 273 1265 518 119 80 173 117 200 140 11 9 70 57 130 107 99 82 301 279
381 371 390 453 668 1005 784 1562 35 168 38 185 55 333 3 28 8 68 11 90 9 68
11 527 3 595 -4 36 -10 90 -13 120 -11 102 -32 231 -47 300 -6 25 -12 54 -15
65 -18 96 -37 163 -92 330 -20 61 -37 112 -37 115 -1 3 -6 16 -12 30 -6 14
-25 61 -43 105 -31 79 -139 300 -188 385 -180 315 -452 651 -711 878 -36 32
-72 64 -81 72 -31 30 -260 199 -343 253 -221 145 -463 265 -712 355 -124 45
-288 96 -341 106 -11 2 -39 9 -64 16 -25 7 -56 14 -70 16 -14 3 -47 9 -75 14
-53 10 -87 16 -145 25 -19 2 -53 8 -75 11 -43 7 -769 16 -776 10z m586 -790
c509 -49 976 -226 1371 -519 108 -80 135 -102 238 -197 322 -296 575 -682 721
-1100 42 -121 99 -343 114 -445 5 -38 12 -88 16 -110 19 -135 24 -376 12 -545
-8 -97 -10 -114 -28 -235 -11 -68 -15 -87 -23 -122 -3 -10 -11 -47 -20 -83
-65 -274 -199 -582 -360 -830 -387 -595 -1026 -1034 -1711 -1176 -11 -2 -36
-7 -55 -11 -19 -4 -37 -8 -40 -8 -3 -1 -32 -5 -65 -9 -33 -5 -69 -10 -80 -12
-41 -8 -224 -18 -335 -18 -389 1 -754 81 -1113 244 -625 285 -1121 798 -1386
1433 -66 159 -133 381 -156 519 -3 18 -8 40 -10 48 -5 18 -24 162 -32 245 -8
83 -8 323 0 425 11 148 17 191 48 342 62 306 171 586 336 860 57 95 174 264
193 278 4 3 11 12 16 21 15 28 134 158 224 245 304 295 658 509 1060 639 115
37 338 90 425 100 28 4 61 8 75 11 14 2 66 7 115 10 50 4 91 7 92 8 5 4 298
-2 358 -8z"/>
<path d="M3408 5745 c-2 -1 -45 -5 -97 -9 -52 -4 -97 -8 -100 -10 -3 -2 -29
-6 -58 -10 -69 -8 -261 -58 -348 -91 -329 -124 -619 -358 -848 -683 -142 -201
-146 -257 -24 -350 29 -22 158 -120 287 -219 276 -210 278 -212 327 -223 63
-15 100 8 186 115 192 237 318 353 436 399 115 45 307 58 431 30 100 -23 220
-87 286 -151 76 -75 102 -133 99 -221 -6 -210 -92 -309 -400 -464 -190 -96
-293 -172 -443 -327 -155 -161 -250 -337 -269 -501 -4 -30 -7 -109 -7 -175 1
-146 18 -209 70 -255 l35 -31 459 3 459 3 31 30 c42 40 56 69 65 135 20 152
146 338 297 441 31 22 60 39 64 39 3 0 26 14 51 30 24 17 46 30 48 30 12 0
120 71 200 131 110 83 208 176 265 249 91 118 176 336 197 507 12 89 8 280 -6
358 -46 251 -182 501 -378 701 -257 260 -646 454 -1012 504 -74 10 -296 21
-303 15z"/>
<path d="M2965 2282 c-31 -10 -60 -34 -81 -66 -18 -28 -19 -54 -19 -490 0
-445 1 -462 20 -496 12 -19 36 -43 55 -54 33 -20 51 -21 497 -20 450 0 463 0
490 20 16 12 38 35 50 53 21 31 21 37 22 474 0 243 -2 456 -5 474 -7 38 -49
88 -88 102 -30 12 -906 14 -941 3z"/>
</g>
</svg>
